<?xml version="1.0" standalone="no"?>
<!DOCTYPE svg PUBLIC "-//W3C//DTD SVG 1.1//EN" "http://www.w3.org/Graphics/SVG/1.1/DTD/svg11.dtd" >
<svg xmlns="http://www.w3.org/2000/svg">
  <metadata>Created by iconfont</metadata>
  <defs>
  <font id="iconfont" horiz-adv-x="1024">
    <font-face
      font-family="iconfont"
      font-weight="400"
      font-stretch="normal"
      units-per-em="1024"
      ascent="896"
      descent="-128"
    />
      <missing-glyph />
      
      <glyph glyph-name="error-403" unicode="&#59013;" d="M344.51781657 123.90137046999996v63.96054692H214.43225474V241.18653787000005L352.32647143 443.03094518h51.16015248v-201.62692488h39.45752652v-53.55245921h-39.45752652v-63.96054692h-58.96880734z m0 117.50264983V350.02095944999996l-73.06374004-108.60658283h73.06374004zM574.97669783 443.03094518c30.78929825 0 54.84699749-10.98804085 72.19381034-32.95376625 20.67118711-26.0150411 31.00678068-69.15941262 31.00678068-129.43311454 0-60.13906995-10.4080877-103.3455793-31.22426311-129.65059698-17.20182455-21.68610512-41.19738595-32.52915769-71.97632791-32.52915768-30.93428654 0-55.87227181 11.87868318-74.79324316 35.65676215-18.941684 23.77807897-28.40734783 66.16644014-28.40734784 127.15472719 0 59.83873707 10.4080877 102.91061443 31.22426311 129.21563213 17.19146825 21.69646143 41.18702965 32.53951399 71.97632789 32.53951398z m0-50.5180615a30.44754015 30.44754015 0 0 1-19.72876325-7.04228821c-5.78917515-4.70176301-10.26309941-13.12143991-13.44248542-25.25903076-4.194304-15.75194169-6.28627785-42.27444179-6.28627784-79.56750032s1.88484773-62.91456 5.64418687-76.86450441c3.74898284-13.94994442 8.48181475-23.22919475 14.19849576-27.8481073 5.7063247-4.62926885 12.25151021-6.93872514 19.62520018-6.93872513s13.94994442 2.3508815 19.72876328 7.0526445c5.77881885 4.6914067 10.25274311 13.11108362 13.44248541 25.24867445 4.1839477 15.60695341 6.27592155 42.06731568 6.27592153 79.35001789s-1.88484773 62.9042037-5.63383056 76.85414811c-3.75933915 13.94994442-8.49217106 23.27061997-14.19849575 27.97238297a30.05400051 30.05400051 0 0 1-19.62520021 7.04228821zM716.76488565 208.23277164l58.95845104 7.14585126c1.88484773-15.02700027 6.93872514-26.52250011 15.18234486-34.46578695s18.21674256-11.92010841 29.91936853-11.9201084c12.582912 0 23.15670061 4.76390083 31.76279102 14.31241512 8.59573413 9.53815798 12.89360118 22.40069025 12.89360119 38.5875968 0 15.31697683-4.11145355 27.45456766-12.35507326 36.43348512-8.23326341 8.95820483-18.2892367 13.44248542-30.12649466 13.44248542-7.80865485 0-17.1293304-1.5120207-27.97238298-4.54641842l6.72124271 49.64813179c16.47688311-0.43496485 29.04943882 3.13796077 37.72802339 10.72913321 8.66822827 7.58081612 13.00752055 17.66785833 13.00752056 30.24041402 0 10.69806427-3.1897423 19.22130427-9.538158 25.58007624-6.358772 6.358772-14.81987413 9.53815798-25.36259381 9.53815798-10.4080877 0-19.2937984-3.61435085-26.66748839-10.84305256-7.37368999-7.22870171-11.85797057-17.7817777-13.44248541-31.65922797l-56.15189208 9.54851429c3.90432743 19.21094795 9.78670933 34.56935001 17.66785834 46.06484986 7.88114899 11.48514355 18.85883355 20.51584253 32.95376624 27.10245326 14.0949327 6.57625442 29.88829962 9.86955979 47.36974443 9.86955978 29.91936853 0 53.91492994-9.53815798 71.97632791-28.62483026 14.89236827-15.60695341 22.32819611-33.24374282 22.32819611-52.88965562 0-27.89988883-15.25483899-50.1659471-45.74380438-66.7774622 18.21674256-3.90432743 32.76735273-12.65540613 43.68289944-26.23252354s16.37332005-29.99186267 16.37332006-49.21316694c0-27.88953253-10.19060528-51.6676115-30.57181582-71.33423691-20.38121055-19.6459128-45.74380436-29.48440368-76.09813776-29.48440367-28.75946224 0-52.61003536 8.27468863-71.54136304 24.82406588-18.93132768 16.53902096-29.91936853 38.18370085-32.95376624 64.92368341zM1005.51941437 724.43249651c0 17.99926013-16.99469843 32.59129552-37.95586214 32.59129552H56.44680407c-20.9818763 0-37.96621843-14.59203539-37.96621844-32.59129552v-684.35506821c0-17.99926013 16.99469843-32.57058291 37.96621844-32.57058291h243.12464372v45.07064448h-230.94562766V711.93243497h886.75871605V473.58204839h50.14523449V724.43249651z"  horiz-adv-x="1024" />
      
      <glyph glyph-name="error-500" unicode="&#59014;" d="M225.91739828 205.63333878000003l60.70866679 6.27592154c1.72950313-13.73246198 6.86623099-24.60658347 15.38947096-32.62236444s18.35137454-12.03402777 29.48440368-12.03402777c12.71754398 0 23.4881024 5.16779678 32.30131896 15.50339034 8.81321655 10.33559357 13.22500299 25.91147805 13.22500298 46.72765345 0 19.51128083-4.37036121 34.14474145-13.12143992 43.90038187-8.7407224 9.74528411-20.1223029 14.63346062-34.14474146 14.63346063-17.49180112 0-33.17124867-7.73616071-47.04869894-23.19812583l-49.43064936 7.14585125 31.22426311 165.42127849h161.08198622v-57.02182178H310.69412062l-9.53815799-53.97706776c13.5874737 6.78338053 27.45456766 10.18024897 41.62199451 10.18024896 27.02995911 0 49.93810836-9.82813456 68.72444776-29.48440368 18.78633939-19.65626912 28.18986541-45.16385122 28.1898654-76.53310262 0-26.16002939-7.59117243-49.5031435-22.76316097-70.02934233-20.67118711-28.04487712-49.35815522-42.06731568-86.0712606-42.06731568-29.33941538 0-53.26248265 7.88114899-71.75884548 23.63309069-18.50671913 15.7726543-29.55689781 36.95130043-33.18160497 63.54629467zM574.97669783 443.03094518c30.78929825 0 54.84699749-10.98804085 72.19381034-32.95376625 20.67118711-26.0150411 31.00678068-69.15941262 31.00678068-129.43311454 0-60.13906995-10.4080877-103.3455793-31.22426311-129.65059698-17.20182455-21.68610512-41.19738595-32.52915769-71.97632791-32.52915768-30.93428654 0-55.87227181 11.87868318-74.79324316 35.65676215-18.941684 23.77807897-28.40734783 66.16644014-28.40734784 127.15472719 0 59.83873707 10.4080877 102.91061443 31.22426311 129.21563213 17.19146825 21.69646143 41.18702965 32.53951399 71.97632789 32.53951398z m0-50.5180615a30.44754015 30.44754015 0 0 1-19.72876325-7.04228821c-5.78917515-4.70176301-10.26309941-13.12143991-13.44248542-25.25903076-4.194304-15.75194169-6.28627785-42.27444179-6.28627784-79.56750032s1.88484773-62.91456 5.64418687-76.86450441c3.74898284-13.94994442 8.48181475-23.22919475 14.19849576-27.8481073 5.7063247-4.62926885 12.25151021-6.93872514 19.62520018-6.93872513s13.94994442 2.3508815 19.72876328 7.0526445c5.77881885 4.6914067 10.25274311 13.11108362 13.44248541 25.24867445 4.1839477 15.60695341 6.27592155 42.06731568 6.27592153 79.35001789s-1.88484773 62.9042037-5.63383056 76.85414811c-3.75933915 13.94994442-8.49217106 23.27061997-14.19849575 27.97238297a30.05400051 30.05400051 0 0 1-19.62520021 7.04228821zM821.91246222 443.03094518c30.78929825 0 54.85735379-10.98804085 72.20416663-32.95376625 20.66083082-26.0150411 30.99642437-69.15941262 30.99642439-129.43311454 0-60.13906995-10.4080877-103.3455793-31.22426311-129.65059698-17.19146825-21.68610512-41.19738595-32.52915769-71.97632791-32.52915768-30.92393023 0-55.8619155 11.87868318-74.79324318 35.65676215-18.941684 23.77807897-28.39699152 66.16644014-28.39699152 127.15472719 0 59.83873707 10.4080877 102.91061443 31.21390679 129.21563213 17.20182455 21.69646143 41.18702965 32.53951399 71.97632791 32.53951398z m0-50.5180615c-7.36333369 0-13.94994442-2.3508815-19.71840695-7.04228821-5.78917515-4.70176301-10.26309941-13.12143991-13.4424854-25.25903076-4.194304-15.75194169-6.28627785-42.27444179-6.28627787-79.56750032s1.87449141-62.91456 5.63383057-76.86450441 8.49217106-23.22919475 14.19849576-27.8481073c5.71668101-4.62926885 12.26186651-6.93872514 19.6252002-6.93872513 7.37368999 0 13.94994442 2.3508815 19.72876325 7.0526445 5.78917515 4.6914067 10.26309941 13.11108362 13.44248542 25.24867445 4.194304 15.60695341 6.28627785 42.06731568 6.28627785 79.35001789s-1.88484773 62.9042037-5.63383056 76.85414811c-3.75933915 13.94994442-8.49217106 23.27061997-14.20885207 27.97238297a30.0332879 30.0332879 0 0 1-19.6252002 7.04228821zM1005.51941437 724.43249651c0 17.99926013-16.99469843 32.59129552-37.95586214 32.59129552H56.44680407c-20.9818763 0-37.96621843-14.59203539-37.96621844-32.59129552v-684.35506821c0-17.99926013 16.99469843-32.57058291 37.96621844-32.57058291h243.12464372v45.07064448h-230.94562766V711.93243497h886.75871605V473.58204839h50.14523449V724.43249651z"  horiz-adv-x="1024" />
      
      <glyph glyph-name="javascript" unicode="&#58937;" d="M32 864h960v-960H32V864z m881.35999969-731.04c-7.00000031 43.8-35.52 80.59999969-120.12 114.91999969-29.44000031 13.8-62.16 23.4-71.88 45.6-3.64000031 13.2-4.2 20.4-1.83999938 28.2 6 25.84000031 36.6 33.6 60.6 26.4 15.6-4.8 30-16.8 39.03999938-36 41.35999969 27.04000031 41.35999969 27.04000031 70.2 45-10.8 16.8-16.15999969 24.04000031-23.43999938 31.2-25.2 28.2-58.75999969 42.6-113.36000062 41.36000062l-28.2-3.56000062c-27.04000031-6.6-52.8-21-68.4-40.2-45.6-51.64000031-32.44000031-141.64000031 22.76000062-178.83999938 54.6-40.8 134.44000031-49.75999969 144.63999938-88.2 9.6-46.8-34.8-61.8-78.63999938-56.4-32.44000031 7.2-50.4 23.44000031-70.2 53.43999938l-73.2-42.03999938c8.4-19.2 18-27.55999969 32.4-44.36000062 69.6-70.24000031 243.6-66.64000031 274.83999938 40.16000062 1.15999969 3.6 9.6 28.2 2.96000062 66l1.83999938-2.68000031z m-359.31999938 289.8h-89.92000031c0-77.52-0.36-154.56-0.36-232.2 0-49.27999969 2.52-94.51999969-5.52-108.43999969-13.2-27.55999969-47.20000031-24.04000031-62.64-19.2-15.84 7.84000031-23.88 18.64000031-33.19999969 34.2-2.52 4.2-4.39999969 7.84000031-5.08000031 7.83999938l-73.00000031-45c12.19999969-25.2 30-46.87999969 52.96000031-60.67999969 34.2-20.4 80.16-27 128.28-16.2 31.32 9.04000031 58.32 27.64000031 72.43999969 56.44000031 20.4 37.2 16.08 82.8 15.88000031 133.83999938 0.48 82.15999969 0 164.35999969 0 247.16000062l0.16000031 2.23999969z"  horiz-adv-x="1024" />
      
      <glyph glyph-name="vue" unicode="&#59034;" d="M512 392L764.8 827.2h-134.4L512 620.8 393.6 825.6h-134.4L512 392zM819.2 825.6L512 296 204.8 827.2H0l512-886.4L1024 825.6H819.2z"  horiz-adv-x="1024" />
      
      <glyph glyph-name="typescript" unicode="&#60655;" d="M32 384v-480h960V864H32z m773.64 38.23999969c24.40000031-6.07999969 42.96-16.92 60.04000031-34.59999938 8.83999969-9.43999969 21.96-26.64 22.99999969-30.80000062 0.31999969-1.2-41.44000031-29.20000031-66.72-44.91999938-0.91999969-0.6-4.60000031 3.36-8.68000031 9.43999969-12.40000031 18-25.32 25.75999969-45.12 27.12-29.11999969 1.99999969-47.83999969-13.24000031-47.67999938-38.68000031a35.20000031 35.20000031 0 0 1 4.08-18c6.40000031-13.24000031 18.31999969-21.19999969 55.59999938-37.32 68.76-29.59999969 98.16-49.08 116.44000031-76.8 20.4-30.91999969 25.00000031-80.32000031 11.11999969-117.03999938-15.19999969-39.91999969-52.99999969-67.03999969-106.2-76.00000031-16.44-2.92000031-55.44-2.47999969-73.11999938 0.72-38.56000031 6.88000031-75.12 25.92-97.68 50.92000031-8.83999969 9.72-26.08000031 35.20000031-25.00000031 36.99999938a63.19999969 63.19999969 0 0 0 8.80000031 5.64c4.32 2.44000031 20.44000031 11.76 35.67999938 20.60000062l27.6 15.99999938 5.80000031-8.55999938c8.08000031-12.31999969 25.72000031-29.23999969 36.40000031-34.88000062 30.64000031-16.15999969 72.67999969-13.87999969 93.39999938 4.72000031a35.32000031 35.32000031 0 0 1 12.52000031 28.8c0 11.11999969-1.39999969 16.00000031-7.2 24.40000031-7.44 10.63999969-22.68 19.60000031-65.95999969 38.4-49.51999969 21.31999969-70.84000031 34.56-90.36 55.59999938a126.6 126.6 0 0 0-26.36000062 48c-3.64000031 13.56-4.56 47.56000031-1.68 61.24000031 10.2 47.88 46.32 81.19999969 98.44000031 91.12000031 16.92 3.19999969 56.23999969 1.99999969 72.84-2.12000062z m-225.36-40.08l0.31999969-39.31999969H455.6v-355.03999969H367.20000031v355.03999969H242.31999969v38.56000031c0 21.36 0.43999969 39.19999969 1.04000062 39.6 0.48 0.64000031 76.51999969 0.96 168.67999969 0.79999969l167.80000031-0.48z"  horiz-adv-x="1024" />
      
      <glyph glyph-name="study" unicode="&#59596;" d="M537.6-18.77333299999998h-51.2c-11.946667 0-22.186667 8.533333-25.6 18.773333l-5.12 10.24c-11.946667 11.946667-49.493333 17.066667-114.346667 15.36H59.733333c-13.653333 0-25.6 11.946667-25.6 25.6V761.173333c0 13.653333 11.946667 25.6 25.6 25.6h310.613334c52.906667 0 105.813333-18.773333 141.653333-51.2 35.84 32.426667 90.453333 51.2 141.653333 51.2h310.613334c13.653333 0 25.6-11.946667 25.6-25.6v-709.973333c0-13.653333-11.946667-25.6-25.6-25.6h-256c-112.64 1.706667-131.413333-8.533333-139.946667-13.653333-3.413333-3.413333-5.12-6.826667-6.826667-11.946667-1.706667-10.24-11.946667-18.773333-23.893333-18.773333z m-34.133333 51.2h17.066666c5.12 8.533333 10.24 15.36 17.066667 20.48l1.706667 1.706666c18.773333 13.653333 46.08 23.893333 170.666666 22.186667H938.666667V735.573333H653.653333c-47.786667 0-97.28-20.48-122.88-52.906666-3.413333-5.12-11.946667-8.533333-18.773333-8.533334-6.826667 0-15.36 3.413333-20.48 8.533334-25.6 30.72-75.093333 52.906667-122.88 52.906666H85.333333V76.79999999999995h256c105.813333 1.706667 133.12-13.653333 148.48-29.013333 5.12-5.12 10.24-10.24 13.653334-15.36zM404.48 535.893333H163.84c-13.653333 0-25.6 11.946667-25.6 25.6s11.946667 25.6 25.6 25.6h240.64c13.653333 0 25.6-11.946667 25.6-25.6s-11.946667-25.6-25.6-25.6zM404.48 395.946667H163.84c-13.653333 0-25.6 11.946667-25.6 25.6s11.946667 25.6 25.6 25.6h240.64c13.653333 0 25.6-11.946667 25.6-25.6s-11.946667-25.6-25.6-25.6zM404.48 256H163.84c-13.653333 0-25.6 11.946667-25.6 25.6s11.946667 25.6 25.6 25.6h240.64c13.653333 0 25.6-11.946667 25.6-25.6s-11.946667-25.6-25.6-25.6zM848.213333 395.946667H607.573333c-13.653333 0-25.6 11.946667-25.6 25.6s11.946667 25.6 25.6 25.6h240.64c13.653333 0 25.6-11.946667 25.6-25.6s-11.946667-25.6-25.6-25.6zM848.213333 256H607.573333c-13.653333 0-25.6 11.946667-25.6 25.6s11.946667 25.6 25.6 25.6h240.64c13.653333 0 25.6-11.946667 25.6-25.6s-11.946667-25.6-25.6-25.6zM512-11.946667000000048c-13.653333 0-25.6 11.946667-25.6 25.6V706.56c0 13.653333 11.946667 25.6 25.6 25.6s25.6-11.946667 25.6-25.6v-692.906667c0-13.653333-11.946667-25.6-25.6-25.6zM708.266667 512c-5.12 0-8.533333 1.706667-11.946667 3.413333-8.533333 3.413333-13.653333 11.946667-13.653333 22.186667V761.173333c0 13.653333 11.946667 25.6 25.6 25.6h155.306666c13.653333 0 25.6-11.946667 25.6-25.6V537.6c0-8.533333-5.12-17.066667-13.653333-22.186667-8.533333-5.12-17.066667-5.12-25.6 0L785.066667 552.96l-64.853334-37.546667c-3.413333-1.706667-8.533333-3.413333-11.946666-3.413333zM733.866667 735.573333v-153.6l39.253333 22.186667c8.533333 5.12 17.066667 5.12 25.6 0l39.253333-22.186667v153.6H733.866667z"  horiz-adv-x="1024" />
      
      <glyph glyph-name="view" unicode="&#58942;" d="M607.839811 0.04289800000003652H214.69447A86.82497 86.82497 0 0 0 127.880338 86.92927899999995V681.2152189999999A86.839419 86.839419 0 0 0 214.69447 768.1196620000001h594.28594a86.33729 86.33729 0 0 0 61.436749-25.456857c16.400473-16.400473 25.362934-38.208767 25.373771-61.411462L894.439878 288.17825100000005v-0.10476a32.031496 32.031496 0 0 1 64.059379-0.101149L959.825022 681.110458v0.104761A150.775976 150.775976 0 0 1 808.98041 832.059831H214.69447A150.638703 150.638703 0 0 1 63.940169 681.2152189999999v-594.28594a150.638703 150.638703 0 0 1 150.757914-150.82655h393.141728a31.970084 31.970084 0 0 1 0 63.940169zM950.544667-9.331380999999965l-122.071536 122.071536a192.217875 192.217875 0 1 1-45.213286-45.213286l122.071536-122.071536a31.970084 31.970084 0 0 1 45.213286 45.213286z m-278.547941 105.302594a128.028448 128.028448 0 1 0 90.531332 37.497116 127.193975 127.193975 0 0 0-90.527719-37.497116zM768.004516 543.787205c17.653989 0 31.966472 14.402794 31.970084 32.056783s-14.308871 32.074845-31.966472 32.078457L256.002709 608.088618a32.020659 32.020659 0 0 1-31.970084-32.024271c0-17.657601 14.308871-32.092907 31.966472-32.092908L768.004516 543.787205zM448.000226 351.96669799999995a31.96286 31.96286 0 1 1 0 63.940169h-192.001129a31.937573 31.937573 0 1 1 0-63.878758l192.001129-0.061411zM256.017159 224.08636a31.959247 31.959247 0 1 1 0-63.922107l127.999549-0.018062a31.941185 31.941185 0 1 1 0 63.878757z"  horiz-adv-x="1024" />
      
      <glyph glyph-name="link" unicode="&#59357;" d="M770.722909 325.44581800000003l65.489455 65.466182a151.458909 151.458909 0 0 1 0 213.922909 151.505455 151.505455 0 0 1-213.946182 0l-164.561455-164.538182a35.607273 35.607273 0 0 0-0.651636-0.651636l-81.640727-81.640727a58.321455 58.321455 0 0 1 0-82.315637 58.298182 58.298182 0 0 1 82.292363 0l197.469091 197.492364a34.909091 34.909091 0 1 0 49.361455-49.338182l-197.469091-197.515636a127.650909 127.650909 0 0 0-90.507637-37.422546 127.650909 127.650909 0 0 0-90.507636 37.422546 128.186182 128.186182 0 0 0 0 181.061818l197.469091 197.445818 0.651636 0.651636 48.733091 48.709819c86.202182 86.248727 226.513455 86.202182 312.669091 0 86.202182-86.202182 86.202182-226.443636 0-312.645819l-164.561454-164.584727a35.490909 35.490909 0 0 0-0.837819-0.791273l-114.362181-114.385454a313.204364 313.204364 0 0 0-222.161455-91.880727 313.204364 313.204364 0 0 0-222.161454 91.880727C102.353455 120.90181800000005 69.818182 199.79636400000004 69.818182 283.927273s32.535273 163.048727 91.671273 222.161454L424.797091 769.419636a34.932364 34.932364 0 0 0 49.361454-49.384727L210.850909 456.727273A242.641455 242.641455 0 0 1 139.636364 283.927273c0-65.466182 25.297455-126.836364 71.214545-172.776728a242.688 242.688 0 0 1 172.8-71.214545c65.489455 0 126.859636 25.297455 172.8 71.214545l114.501818 114.501819 0.674909 0.698181 80.151273 80.151273 18.594909 18.618182 0.349091 0.325818z"  horiz-adv-x="1024" />
      
      <glyph glyph-name="preview" unicode="&#58953;" d="M512 0C271.232 0 32 209.98400000000004 32 384S271.232 768 512 768c240.96 0 480-209.6 480-384s-239.04-384-480-384z m0 64c207.36 0 416 182.976 416 320S719.36 704 512 704C304.896 704 96 520.704 96 384s208.896-320 416-320z m0 128a192 192 0 1 0 0 384 192 192 0 0 0 0-384z m0 64a128 128 0 1 1 0 256 128 128 0 0 1 0-256z"  horiz-adv-x="1024" />
      
      <glyph glyph-name="empty" unicode="&#59718;" d="M274.56 97.00266699999997l19.434667 25.130666-33.792-68.565333a18.133333 18.133333 0 0 1 11.562666-25.536l59.733334-16a18.133333 18.133333 0 0 1 17.28 4.48c20.522667 19.818667 35.626667 35.989333 45.290666 48.469333l19.456 25.130667-33.813333-68.565333a18.133333 18.133333 0 0 1 11.562667-25.536l84.48-22.634667a18.133333 18.133333 0 0 1 17.28 4.48c20.522667 19.84 35.626667 35.989333 45.269333 48.469333l19.456 25.130667-33.813333-68.565333A18.133333 18.133333 0 0 1 535.530667-42.66666699999996l72.106666-19.328a18.133333 18.133333 0 0 1 17.28 4.48c20.522667 19.84 35.626667 36.010667 45.269334 48.490667l19.456 25.130667-33.813334-68.586667a18.133333 18.133333 0 0 1 11.584-25.514667l86.421334-23.338666 3.84 0.213333c13.269333 0.704 29.056 5.034667 43.84 12.8 29.781333 15.701333 48.170667 43.2 52.181333 78.250667 2.133333 18.517333 4.778667 38.549333 8.405333 63.530666 1.642667 11.221333 2.944 20.010667 6.229334 41.834667 11.050667 73.322667 14.634667 101.034667 17.130666 133.674667l0.938667 12.373333 2.837333 2.922667 12.330667 1.344a41.813333 41.813333 0 0 1 24.810667 11.221333c10.730667 10.24 14.805333 25.386667 11.093333 42.197333l-37.546667 171.584c-3.029333 13.696-11.264 27.946667-23.146666 39.829334-11.648 11.626667-25.92 20.138667-39.893334 23.893333L723.626667 564.6933329999999l-2.261334 3.925334L774.250667 765.866667c8.32 31.061333-11.754667 63.744-44.970667 72.64l-79.509333 21.312c-33.194667 8.896-66.922667-9.365333-75.264-40.426667l-52.842667-197.269333-3.925333-2.261334-118.101334 31.637334c-13.994667 3.754667-30.634667 3.498667-46.506666-0.746667-16.256-4.352-30.506667-12.586667-39.957334-22.933333l-118.314666-129.792c-11.605333-12.714667-15.658667-27.84-11.52-42.090667 4.16-14.229333 15.850667-25.194667 32.896-30.528l13.610666-4.266667 2.133334-3.882666-3.626667-13.802667c-21.12-79.850667-52.885333-136.917333-85.717333-150.890667-47.530667-20.202667-72.938667-49.429333-78.421334-85.034666-5.034667-32.682667 9.28-67.114667 37.589334-91.541334l22.037333-8.341333 74.666667-20.010667a42.666667 42.666667 0 0 1 41.216 11.050667c15.274667 15.274667 26.88 28.032 34.837333 38.293333z m551.381333 396.565333c14.144-3.797333 29.952-19.2 32.768-32l34.56-157.781333a10.666667 10.666667 0 0 0-13.184-12.586667L240.64 462.506667a10.666667 10.666667 0 0 0-5.12 17.493333l108.8 119.36c8.832 9.685333 30.229333 15.146667 44.373333 11.349333l141.333334-37.866666a21.333333 21.333333 0 0 1 26.133333 15.082666l58.304 217.642667a21.333333 21.333333 0 0 0 26.133333 15.082667l77.056-20.650667a21.333333 21.333333 0 0 0 15.082667-26.133333l-58.325333-217.642667a21.333333 21.333333 0 0 1 15.082666-26.112l136.448-36.565333zM315.456 194.43200000000002c-33.664-45.141333-64.597333-79.082667-92.8-101.802667l-5.909333-4.778666-2.837334-0.597334-88.106666 24.106667-2.922667 3.2c-13.034667 14.165333-19.370667 31.04-16.981333 46.592 3.285333 21.333333 22.058667 39.338667 53.205333 52.586667 31.722667 13.482667 59.818667 47.104 82.922667 99.904 10.026667 22.954667 18.88 48.725333 26.389333 76.586666l3.882667 14.4 3.904 2.261334 566.165333-151.701334 2.346667-3.306666-0.789334-12.224c-1.984-30.592-30.336-229.397333-32.128-244.906667-2.346667-20.416-11.306667-34.986667-27.605333-44.394667a73.237333 73.237333 0 0 0-21.397333-8.106666l-5.013334-0.725334-60.373333 16.170667 11.242667 20.288c8.277333 14.976 22.656 43.84 43.093333 86.613333a21.12 21.12 0 0 1-9.962667 28.16l-3.136 1.493334a21.333333 21.333333 0 0 1-26.261333-6.485334c-33.642667-45.056-64.533333-78.912-92.672-101.546666l-5.909333-4.757334-2.837334-0.597333-52.544 14.08 11.114667 20.266667c3.562667 6.485333 7.04 13.013333 10.453333 19.626666 7.04 13.504 17.898667 35.797333 32.597334 66.816a21.290667 21.290667 0 0 1-9.984 28.309334l-3.029334 1.450666a21.333333 21.333333 0 0 1-26.368-6.442666c-33.6-45.013333-64.469333-78.826667-92.608-101.482667l-5.909333-4.757333-2.837333-0.597334-52.138667 13.973334 11.114667 20.266666c3.242667 5.888 6.72 12.416 10.453333 19.626667 6.997333 13.461333 17.962667 35.946667 32.896 67.434667a20.970667 20.970667 0 0 1-10.112 28.010666l-3.328 1.536a21.333333 21.333333 0 0 1-26.069333-6.613333c-33.642667-45.056-64.554667-78.976-92.778667-101.696l-5.909333-4.757333-2.837334-0.597334-32.64 8.746667 11.093334 20.245333c3.541333 6.506667 7.04 13.034667 10.453333 19.626667 6.976 13.482667 17.941333 35.968 32.874667 67.456a21.056 21.056 0 0 1-10.069334 28.074667l-3.242666 1.514666a21.333333 21.333333 0 0 1-26.154667-6.549333z"  horiz-adv-x="1024" />
      
      <glyph glyph-name="export" unicode="&#59009;" d="M266.778947 532.2105260000001h517.389474c10.778947 0 18.863158 8.084211 18.863158 18.863158s-8.084211 18.863158-18.863158 18.863158H266.778947c-10.778947 0-18.863158-8.084211-18.863158-18.863158s10.778947-18.863158 18.863158-18.863158zM266.778947 400.168421h312.589474c10.778947 0 18.863158 8.084211 18.863158 18.863158s-8.084211 18.863158-18.863158 18.863158H266.778947c-10.778947 0-18.863158-8.084211-18.863158-18.863158s10.778947-18.863158 18.863158-18.863158zM827.284211 860.968421H323.368421 315.284211c-2.694737 0-2.694737-2.694737-2.694737-2.694737h-2.694737l-167.073684-161.68421s-2.694737-2.694737-2.694737-5.389474v-727.578947c0-32.336842 26.947368-59.284211 59.28421-59.284211h633.263158c32.336842 0 59.284211 26.947368 59.284211 59.284211v51.2c0 10.778947-8.084211 18.863158-18.863158 18.863158s-18.863158-8.084211-18.863158-18.863158v-51.2c0-10.778947-10.778947-21.557895-21.557895-21.557895H196.715789c-10.778947 0-21.557895 10.778947-21.557894 21.557895v700.631579h91.621052c40.421053 0 72.757895 32.336842 72.757895 72.757894V823.242105h485.052632c10.778947 0 21.557895-10.778947 21.557894-21.557894v-420.378948c0-10.778947 8.084211-18.863158 18.863158-18.863158s18.863158 8.084211 18.863158 18.863158V801.684211c2.694737 32.336842-24.252632 59.284211-56.589473 59.28421zM266.778947 701.9789470000001H202.105263l102.4 97.010527v-59.284211c0-21.557895-16.168421-37.726316-37.726316-37.726316zM773.389474 130.69473700000003c2.694737-2.694737 8.084211-5.389474 13.473684-5.389474s10.778947 2.694737 13.473684 5.389474l80.842105 80.842105 5.389474 5.389474c2.694737 5.389474 2.694737 10.778947 0 13.473684 0 2.694737-2.694737 5.389474-5.389474 5.389474l-78.147368 78.147368c-8.084211 8.084211-18.863158 8.084211-26.947368 0s-8.084211-18.863158 0-26.947368l45.810526-45.810527H619.789474c-56.589474 0-105.094737-45.810526-105.094737-105.094736 0-56.589474 45.810526-105.094737 105.094737-105.094737h80.842105c10.778947 0 18.863158 8.084211 18.863158 18.863158s-8.084211 18.863158-18.863158 18.863157h-80.842105c-37.726316 0-67.368421 29.642105-67.368421 67.368422s29.642105 67.368421 67.368421 67.368421h202.105263l-48.505263-48.505264c-5.389474-5.389474-5.389474-16.168421 0-24.252631z"  horiz-adv-x="1024" />
      
      <glyph glyph-name="run" unicode="&#58908;" d="M508.26666667 858.98666667C243.62666667 858.98666667 29.01333333 644.48 29.01333333 379.73333333000005s214.50666667-479.25333333 479.25333334-479.25333333S987.52 114.98666666999998 987.52 379.73333333000005 772.90666667 858.98666667 508.26666667 858.98666667z m286.08-765.22666667c-37.22666667-37.22666667-80.42666667-66.34666667-128.64-86.72-49.81333333-21.12-102.82666667-31.78666667-157.44-31.78666667s-107.62666667 10.66666667-157.44 31.78666667c-48.21333333 20.37333333-91.41333333 49.6-128.64 86.72-37.22666667 37.22666667-66.34666667 80.42666667-86.72 128.64-21.12 49.81333333-31.78666667 102.82666667-31.78666667 157.44s10.66666667 107.62666667 31.78666667 157.44c20.37333333 48.21333333 49.6 91.41333333 86.72 128.64 37.22666667 37.22666667 80.42666667 66.34666667 128.64 86.72 49.81333333 21.12 102.82666667 31.78666667 157.44 31.78666667s107.62666667-10.66666667 157.44-31.78666667c48.21333333-20.37333333 91.41333333-49.6 128.64-86.72 37.22666667-37.22666667 66.34666667-80.42666667 86.72-128.64 21.12-49.81333333 31.78666667-102.82666667 31.78666666-157.44s-10.66666667-107.62666667-31.78666666-157.44c-20.37333333-48.21333333-49.6-91.52-86.72-128.64zM697.6 413.01333333L466.98666667 600.96c-11.2 9.06666667-26.56 10.98666667-39.57333334 4.8-13.01333333-6.18666667-21.33333333-19.30666667-21.33333333-33.70666667v-375.89333333c0-14.4 8.32-27.52 21.33333333-33.70666667 5.12-2.45333333 10.56-3.62666667 16-3.62666666 8.42666667 0 16.74666667 2.88 23.57333334 8.42666666L697.6 355.20000000000005c8.74666667 7.04 13.76 17.70666667 13.76 28.90666667s-5.01333333 21.86666667-13.76 28.90666666zM480.74666667 274.77333333v218.66666667l134.18666666-109.33333333-134.18666666-109.33333334z"  horiz-adv-x="1024" />
      
      <glyph glyph-name="import" unicode="&#58993;" d="M618.666667 896c69.12 0 289.237333-218.624 298.368-294.058667L917.333333 597.333333v-186.666666a42.666667 42.666667 0 0 0-85.034666-4.992L832 410.666667V554.666667h-128a128 128 0 0 0-127.786667 120.490666L576 682.666667V810.666667H192a42.666667 42.666667 0 0 1-42.368-37.674667L149.333333 768v-725.333333a85.333333 85.333333 0 0 1 78.933334-85.12L234.666667-42.66666699999996h341.333333a42.666667 42.666667 0 0 0 4.992-85.034666L576-128H234.666667a170.666667 170.666667 0 0 0-170.453334 162.133333L64 42.66666699999996V768A128 128 0 0 0 184.490667 895.786667L192 896h426.666667z m85.333333-700.330667a42.666667 42.666667 0 0 0 42.368-37.717333l0.298667-4.949333V128L917.333333 128a42.666667 42.666667 0 0 0 0-85.333333h-170.666666v-25.002667a42.666667 42.666667 0 0 0-8.789334-25.941333l-3.712-4.224a42.666667 42.666667 0 0 0-56.32-3.541334l-4.010666 3.541334-67.669334 67.669333a42.666667 42.666667 0 0 0-3.541333 56.32l3.541333 4.010667 67.669334 67.669333a42.666667 42.666667 0 0 0 30.165333 12.501333zM618.666667 341.33333300000004a42.666667 42.666667 0 0 0 0-85.333333H320a42.666667 42.666667 0 0 0 0 85.333333h298.666667z m-85.333334 213.333334a42.666667 42.666667 0 0 0 0-85.333334H320a42.666667 42.666667 0 1 0 0 85.333334h213.333333z m128 226.432V682.666667a42.666667 42.666667 0 0 1 37.674667-42.368L704 640h98.474667A1572.693333 1572.693333 0 0 1 661.333333 781.056z"  horiz-adv-x="1024" />
      
      <glyph glyph-name="code" unicode="&#58890;" d="M768 140.54399999999998H590.370133c-14.421333 0-26.112-12.475733-26.112-27.869867v-168.618666h28.433067L768 135.56053299999996v4.983467zM768 196.26666699999998v88.183466c0 15.189333 11.4688 27.477333 25.6 27.477334s25.6-12.288 25.6-27.477334v-160.136533c0-7.2192-2.645333-14.1312-7.338667-19.285333L621.687467-102.70719999999994a24.746667 24.746667 0 0 0-18.261334-8.226133H220.16C155.136-110.93333299999995 102.4-54.306133000000045 102.4 15.547732999999994V752.469333C102.4 822.306133 155.136 878.933333 220.16 878.933333h481.28C766.464 878.933333 819.2 822.306133 819.2 752.452267v-48.930134c0-15.189333-11.4688-27.477333-25.6-27.477333s-25.6 12.288-25.6 27.477333V752.469333c0 39.4752-29.7984 71.492267-66.56 71.492267H220.16c-36.7616 0-66.56-32.017067-66.56-71.509333v-736.887467c0-39.4752 29.7984-71.492267 66.56-71.492267H512v168.618667C512 158.839467 547.089067 196.26666699999998 590.370133 196.26666699999998H768zM462.336 398.677333l-196.369067 83.3536v14.6432l196.369067 82.978134v-19.1488l-171.588267-70.9632 171.588267-71.338667v-19.524267z m178.517333 235.042134h19.5072L531.2 321.70666700000004h-19.1488l128.785067 312.0128z m71.099734-216.2688l171.588266 71.338666-171.588266 70.9632V578.901333l196.369066-82.978133v-14.6432l-196.369066-83.3536V417.450667z"  horiz-adv-x="1024" />
      
      <glyph glyph-name="json" unicode="&#58894;" d="M742.4 140.544H564.770133c-14.4384 0-26.112-12.475733-26.112-27.869867v-168.618666h28.433067L742.4 135.560533v4.983467zM742.4 196.266667v88.183466c0 15.189333 11.4688 27.477333 25.6 27.477334s25.6-12.288 25.6-27.477334v-160.136533c0-7.2192-2.645333-14.1312-7.338667-19.285333L596.087467-102.7072a24.746667 24.746667 0 0 0-18.261334-8.226133H194.56C129.536-110.933333 76.8-54.306133 76.8 15.547733V752.469333C76.8 822.306133 129.536 878.933333 194.56 878.933333h481.28C740.864 878.933333 793.6 822.306133 793.6 752.452267v-48.930134c0-15.189333-11.4688-27.477333-25.6-27.477333s-25.6 12.288-25.6 27.477333V752.469333c0 39.4752-29.7984 71.492267-66.56 71.492267H194.56c-36.7616 0-66.56-32.017067-66.56-71.509333v-736.887467c0-39.4752 29.7984-71.492267 66.56-71.492267H486.4v168.618667C486.4 158.839467 521.489067 196.266667 564.770133 196.266667H742.4zM289.058133 601.429333h33.3824l-15.581866-153.275733c-2.645333-26.026667-9.437867-45.056-20.4288-57.7536-12.1856-13.329067-29.986133-20.002133-53.674667-20.002133-20.548267 0-35.601067 6.3488-44.868267 19.0464-9.557333 12.6976-13.192533 30.139733-10.939733 52.360533l0.733867 7.304533h33.399466l-0.7168-6.997333c-2.645333-26.0096 6.024533-39.0144 26.282667-39.0144 11.127467 0 19.797333 3.805867 25.668267 11.093333 5.888 7.304533 9.642667 19.0464 11.281066 35.2256l15.4624 152.0128z m144.128 4.437334c23.978667 0 42.257067-5.393067 54.545067-16.503467 13.073067-11.741867 19.473067-30.139733 18.944-54.903467H473.6c-1.4336 13.9776-5.819733 24.132267-12.629333 30.1568-6.775467 6.3488-17.902933 9.198933-32.733867 9.198934-12.8512 0-22.7328-1.911467-30.0032-6.024534-9.045333-4.778667-13.858133-12.6976-14.9504-23.483733-0.9728-9.5232 2.798933-17.4592 11.912533-23.176533 4.027733-2.525867 15.240533-7.287467 33.399467-13.960534 26.709333-9.506133 43.6224-17.134933 51.0976-22.203733 16.503467-11.741867 23.7056-27.938133 21.572267-48.878933-2.048-20.309333-10.837333-36.488533-26.299734-48.2304-15.428267-11.434667-36.3008-17.4592-62.276266-17.4592-25.105067 0-44.253867 5.393067-57.1392 16.196266-15.7696 13.312-23.04 34.269867-21.538134 63.146667h33.109334c0.512-17.134933 4.693333-29.525333 12.8-36.8128 7.338667-6.3488 19.2512-9.8304 36.096-9.8304 14.848 0 27.101867 2.850133 36.215466 8.2432 9.147733 5.717333 14.455467 13.0048 15.428267 22.528 1.211733 12.066133-4.369067 21.589333-16.213333 28.5696-3.771733 2.218667-16.384 7.287467-38.161067 14.916267-24.200533 8.874667-39.253333 15.223467-44.868267 19.029333-14.626133 10.478933-20.7872 25.7024-18.7392 45.704533 2.030933 19.985067 11.0592 35.84 27.630934 47.274667 15.394133 11.093333 33.928533 16.503467 55.893333 16.503467z m207.223467 0c31.112533 0 54.528-11.093333 70.212267-33.621334 14.9504-21.282133 20.650667-49.527467 17.1008-84.4288-3.549867-34.901333-14.9504-62.8224-34.235734-84.087466-20.241067-22.2208-45.909333-33.3312-77.0048-33.3312-31.402667 0-54.784 11.434667-70.212266 33.6384-14.933333 21.589333-20.360533 49.5104-16.878934 83.797333 3.515733 34.577067 14.626133 62.498133 33.962667 84.0704C583.338667 594.773333 609.006933 605.866667 640.392533 605.866667z m-3.242667-32.682667c-21.128533 0-38.1952-7.936-51.5072-23.808-12.680533-15.223467-20.1728-35.5328-22.818133-61.559467-2.6112-25.7024 0.750933-46.011733 10.325333-61.252266 9.847467-15.530667 25.582933-23.466667 46.6944-23.466667 21.128533 0 38.161067 7.611733 51.0976 22.528 12.629333 14.916267 20.445867 35.5328 23.159467 62.190933 2.7136 26.658133-0.8704 47.616-10.4448 62.839467-9.864533 15.223467-25.3952 22.528-46.506667 22.528z m131.84 28.245333h33.3824l84.1216-163.4304h1.143467l16.605867 163.4304h33.672533l-23.04-226.577066h-32.529067L797.354667 540.501333h-1.143467l-16.8448-165.649066H745.984l23.04 226.577066z"  horiz-adv-x="1024" />
      
      <glyph glyph-name="gesture" unicode="&#59138;" d="M576.10666667-96H403.09333333C216.32-96 64.42666667 55.89333333000002 64.42666667 242.55999999999995c0 97.81333333 79.57333333 177.38666667 177.38666666 177.38666667h29.97333334V719.25333333c0 78.4 63.68 142.18666667 141.97333333 142.18666667 38.29333333 0 74.02666667-14.82666667 100.58666667-41.81333333 26.66666667-26.66666667 41.6-62.4 41.6-100.37333334v-169.17333333h133.33333333C836.26666667 550.0799999999999 955.73333333 430.50666667 955.73333333 283.62666666999996 955.73333333 74.24000000000001 785.38666667-96 576.10666667-96zM241.70666667 324.15999999999997c-45.01333333 0-81.6-36.58666667-81.6-81.6 0-133.97333333 109.01333333-242.88 242.88-242.88h173.12c156.48 0 283.84 127.36 283.84 283.84 0 94.18666667-76.58666667 170.77333333-170.77333334 170.77333333H507.94666667c-26.45333333 0-47.89333333 21.44-47.89333334 47.89333334V719.25333333c0 15.89333333-7.46666667 26.66666667-13.76 32.96-8.74666667 8.85333333-20.26666667 13.54666667-32.74666666 13.54666667-25.49333333 0-46.18666667-20.8-46.18666667-46.50666667v-347.2c0-26.45333333-21.44-47.89333333-47.89333333-47.89333333h-77.76zM319.57333333 213.76c-26.45333333 0-47.89333333 21.44-47.89333333 47.89333333V372.05333333c0 26.45333333 21.44 47.89333333 47.89333333 47.89333334s47.89333333-21.44 47.89333334-47.89333334v-110.4c0-26.45333333-21.44-47.89333333-47.89333334-47.89333333z"  horiz-adv-x="1024" />
      
      <glyph glyph-name="vue1" unicode="&#58909;" d="M145.621959 896c-44.79888 0-79.998-36.81188-79.998-81.61076v-860.77848c0-44.79888 35.19912-81.61076 79.998-81.61076h732.781681a81.969151 81.969151 0 0 1 81.61076 81.61076V571.19532L657.60916 896h-511.987201zM657.60916 896v-233.59416c0-25.59936 17.61236-92.79768 97.61036-92.79768h204.79488L657.60916 896zM256.364791 329.81895499999996c0 2.40634-0.127997 4.531087-0.383991 6.37424s-0.537587 3.60951-0.819179 5.247869l-0.81918 4.863878a39.781405 39.781405 0 0 0 0.281593 12.518087c0.435189 2.355141 1.20317 4.454289 2.252744 6.297443s2.483138 3.353516 4.275093 4.505487 4.095898 1.715157 6.911827 1.715157c3.9935 0 7.19342-0.844779 9.59976-2.559936s4.249494-3.865503 5.555062-6.527836 2.175946-5.657459 2.636734-9.010975 0.665583-6.681433 0.665583-9.98375c0-2.892728-0.281593-7.398215-0.81918-13.490863s-1.126372-13.695658-1.715157-22.80903-1.177571-19.660308-1.715157-31.640809-0.81918-25.240969-0.819179-39.755806c0-4.607885 0.204795-9.727757 0.588785-15.385215s1.20317-11.033324 2.40634-16.127597 2.892728-9.574161 5.094272-13.414065 5.145471-6.323042 8.857379-7.423814c9.19017 8.601385 17.61236 17.893953 25.266568 27.903302s14.566036 20.095498 20.786681 30.309642 11.801305 20.197895 16.79318 30.00245 9.497363 18.738732 13.490863 26.853729c3.788705 7.910202 7.21902 15.078023 10.265343 21.529062s5.811055 12.41569 8.242994 17.919552 4.607885 10.623734 6.451039 15.385215 3.532712 9.318167 5.017474 13.721257c0.40959 0.998375 1.049574 2.457539 1.945552 4.351891s2.355141 3.558311 4.351891 4.940677c2.611135 1.894353 6.758231 2.841529 12.441289 2.841529 3.507112 0 6.041449-0.767981 7.654208-2.329542s2.40634-3.737507 2.40634-6.527837l-0.076798-3.532711a9.98375 9.98375 0 0 0-0.819179-3.686308c-2.303942-6.092648-5.350266-13.081273-9.138972-20.914677s-7.756606-16.178796-11.852504-24.984976c-3.891103-8.294193-7.961401-16.767581-12.159696-25.420164s-8.498988-17.151571-12.902077-25.496963-8.831779-16.357991-13.286068-24.0122-8.831779-14.668433-13.132472-21.068273a524.991675 524.991675 0 0 0-41.829354-54.142646c-1.689558-1.894353-3.404715-3.737507-5.094273-5.478263s-3.507112-3.327917-5.401464-4.735882-3.942301-2.534337-6.143847-3.379116-4.607885-1.279968-7.19342-1.279968c-3.9935 0-7.500612 0.844779-10.495738 2.559936s-5.683058 3.814305-8.012599 6.374241-4.377491 5.375866-6.067049 8.473388-3.251119 6.092648-4.659083 9.010975c-1.791955 3.60951-3.327917 7.551811-4.582286 11.852504s-2.278343 8.78058-3.071923 13.414064-1.407965 9.394965-1.791955 14.258844a181.883453 181.883453 0 0 0-0.511987 19.660308l0.230394 11.391716a3415.108222 3415.108222 0 0 1 0.614385 34.354341 2396.202495 2396.202495 0 0 1 0.307192 39.218219v7.270219zM444.750481 232.15739599999995c2.201545 10.111747 4.582285 19.122722 7.116622 27.084123s5.068673 15.359616 7.577411 22.194645 4.863878 13.388465 7.116622 19.660309 4.223894 12.722882 5.913452 19.429914l1.791955 7.19342c0.40959 1.791955 0.742381 4.044699 1.049574 6.758231l0.972776 8.473388c0.358391 2.943926 0.81918 5.862253 1.433564 8.780581s1.484763 5.503862 2.636734 7.807805 2.636734 4.172696 4.428689 5.631859 4.095898 2.175946 6.911828 2.175945c3.097523 0 5.734257-0.537587 7.884602-1.638359s3.865503-2.559936 5.171071-4.351891 2.252744-3.865503 2.841529-6.220644 0.895978-4.78708 0.895978-7.270219c0-2.099148-0.127997-4.198295-0.383991-6.297442s-0.614385-4.044699-1.126372-5.862254c-1.100772-4.505487-2.892728-9.753356-5.401465-15.743606l-8.242993-19.865103c-2.995125-7.244619-6.041449-15.103622-9.138972-23.551412s-5.862253-17.381965-8.242994-26.77693c-1.407965-5.299068-2.636734-11.110122-3.686308-17.407565s-1.58716-12.0061-1.58716-17.100373c0-4.095898 0.358391-7.987 1.049574-11.622109s1.945551-6.860628 3.737506-9.59976 4.223894-4.915077 7.270219-6.527837 6.937427-2.40634 11.622109-2.40634c3.60951 0 7.321417 0.307192 11.18692 0.895978s8.422189 2.047949 13.721257 4.351891c7.807805 3.507112 15.18042 8.0126 22.117847 13.567661s13.388465 11.878103 19.353116 18.969126 11.442914 14.745231 16.511588 22.937026 9.625359 16.690783 13.721257 25.496963 7.731007 17.689158 10.879728 26.700132 5.836654 17.842754 8.012599 26.546537a121.161771 121.161771 0 0 1 3.22552 20.40269c0.255994 3.404715 0.460788 7.039824 0.588785 10.956526s0.435189 8.345391 0.81918 13.337266c0.307192 3.9935 1.433564 7.475013 3.379115 10.41894s4.915077 4.428689 8.934177 4.428689c2.508737 0 4.684683-0.998375 6.527836-2.995125s3.379116-4.479888 4.582286-7.423814 2.099148-6.067048 2.687933-9.369366 0.895978-6.246244 0.895977-8.857379c0-4.991875-0.511987-10.39334-1.510362-16.204395s-2.201545-11.340516-3.60951-16.639584c-2.892728-11.494113-6.374241-23.039424-10.418939-34.661533s-8.882978-22.937027-14.463639-34.047149-12.134097-21.861853-19.58351-32.331992-16.025199-20.223494-25.727357-29.336866c-4.81268-4.505487-10.00935-8.934177-15.59001-13.286068s-11.442914-8.268593-17.561161-11.775706-12.338892-6.323042-18.738732-8.473388-12.748481-3.225519-19.045923-3.225519c-9.087773 0-16.997975 1.279968-23.705008 3.814304s-12.262093 6.118247-16.716382 10.726132-7.782205 10.086148-9.98375 16.434789-3.302317 13.337267-3.302318 20.914678c0 3.60951 0.307192 7.577411 0.895978 11.929301s1.407965 8.652584 2.303942 12.850879zM645.449464 171.12852199999998c0 3.507112 0.511987 7.19342 1.510362 11.110122 3.404715 13.59326 7.372616 26.930527 11.929302 39.9862s8.678183 26.034549 12.364491 38.936627 6.78383 23.781805 9.215769 32.613585 4.633484 16.460388 6.527837 22.809029 3.660708 11.826904 5.247869 16.43479 3.353516 9.138972 5.247869 13.644458c1.20317 2.687933 2.534337 5.503862 3.9679 8.396591s3.020724 5.58066 4.735882 8.012599 3.481513 4.454289 5.324667 5.99025 3.763106 2.329542 5.785455 2.329542c4.095898 0 7.21902-0.665583 9.369366-2.022349s3.481513-2.585535 3.967901-3.686308l1.356766-6.143846c1.510362 0.102397 3.455914 0.38399 5.862253 0.819179s4.81268 0.921577 7.270219 1.433564 4.735882 0.998375 6.835029 1.510362 3.711907 0.947176 4.812679 1.356767c6.604635 1.791955 12.697283 3.353516 18.303543 4.659083s10.930927 2.38074 15.974001 3.225519 9.881353 1.484763 14.463638 1.868754 9.241369 0.588785 13.951651 0.588785c4.607885 0 8.345391-0.255994 11.238119-0.742381s5.19667-1.177571 6.911827-2.02235 2.867128-1.843154 3.532712-2.995125 0.972776-2.38074 0.972776-3.686308c0-1.20317-0.332792-2.483138-0.972776-3.814305s-1.715157-2.636734-3.225519-3.814304-3.455914-2.252744-5.862254-3.148721-5.401465-1.510362-9.010974-1.791956c-0.895978-0.204795-2.969526-0.563186-6.220645-1.126372l-10.572536-1.791955-10.80293-1.868753a129.60956 129.60956 0 0 1-7.039824-1.356766h0.153597c-0.588785-0.102397-2.022349-0.486388-4.275094-1.126372s-4.966276-1.407965-8.166195-2.252744-6.681433-1.817555-10.41894-2.918327l-11.110122-3.225519a687.163621 687.163621 0 0 1-17.637959-5.324667c-6.092648-2.40634-10.879728-5.58066-14.335642-9.522962s-6.169446-8.370991-8.166196-13.286068c-0.40959-0.895978-0.998375-2.431939-1.791955-4.582285l-2.636734-7.347016-3.071923-8.780581-3.148721-8.857378c-0.998375-2.81593-1.868753-5.350266-2.636734-7.654209s-1.279968-3.9935-1.587161-5.094273c-0.307192-0.998375-0.511987-1.894353-0.588785-2.687933s-0.153596-1.407965-0.153596-1.791955c0-0.588785 0.153596-0.895978 0.460788-0.895977 1.510362 0 4.633484 0.665583 9.369366 2.022349s10.290943 3.020724 16.639584 5.017475l20.40269 6.451038c7.244619 2.303942 14.207645 4.454289 20.837879 6.451039s12.569286 3.686308 17.765956 5.017475 8.959776 2.022349 11.238119 2.022349c3.507112 0 5.862253-0.563186 7.039824-1.715157s1.791955-2.431939 1.791955-3.814305c0-3.60951-1.279968-6.758231-3.814305-9.446164s-5.734257-5.043074-9.522961-7.039824c-1.20317-0.588785-3.430314-1.484763-6.681433-2.636734s-6.758231-2.329542-10.495738-3.532711l-10.726132-3.455914-7.347016-2.40634c-9.804555-3.788705-17.765956-6.937427-23.935402-9.369365s-11.135722-4.454289-14.924427-5.990251l-8.78058-3.532711c-2.047949-0.81918-3.942301-1.484763-5.708657-2.02235s-3.686308-1.075173-5.785456-1.58716l-8.703782-2.099148c-0.895978-2.099148-1.945551-5.273468-3.148722-9.522962s-2.355141-8.652584-3.455913-13.209269-2.022349-8.78058-2.764731-12.671684-1.126372-6.604635-1.126372-8.089397c0-1.791955 0.255994-3.123122 0.742382-3.967901s1.100772-1.433564 1.791955-1.715157 1.407965-0.460788 2.099147-0.460789h1.638359c4.81268 0 10.572536 0.691183 17.330767 2.099148s13.414065 3.251119 20.0187 5.555061c6.297443 2.201545 11.801305 4.607885 16.511587 7.19342s9.113372 5.017475 13.286068 7.270218 8.191795 4.147096 12.159696 5.708658 8.268593 2.38074 12.978875 2.483137c0.998375 0 2.175946-0.102397 3.532712-0.307192s2.636734-0.563186 3.814305-1.126372 2.175946-1.279968 2.918327-2.175945 1.023974-2.047949 0.819179-3.455914c-0.40959-2.892728-1.843154-5.759856-4.351891-8.550186s-5.657459-5.503862-9.446164-8.089398-7.987-5.171071-12.671683-7.57741-9.497363-4.684683-14.41244-6.83503-9.702157-4.095898-14.41244-5.862253-8.908577-3.276718-12.594885-4.582285c-9.19017-3.19992-18.149946-5.555061-26.853728-7.039824s-16.511587-2.252744-23.397815-2.252744c-7.60301 0-13.414065 1.433564-17.484363 4.275093s-6.041449 7.60301-6.041449 14.207645z"  horiz-adv-x="1024" />
      
      <glyph glyph-name="paste" unicode="&#58943;" d="M469.12 815.36h128a32 32 0 0 1 32 32 32 32 0 0 1-32 32h-128a32 32 0 0 1-32-32 32 32 0 0 1 32-32zM276.48 721.92a32 32 0 0 1 32 32v29.44a32 32 0 0 0 31.36 32 32 32 0 0 1 32 32 33.28 33.28 0 0 1-32.64 32 96.64 96.64 0 0 1-94.72-96v-29.44a32 32 0 0 1 32-32zM727.68 815.36h128a32 32 0 0 1 32 32 32 32 0 0 1-32 32h-128a32 32 0 0 1-32-32 32 32 0 0 1 32-32zM976 324.48a32 32 0 0 1-32-32v-128a32.64 32.64 0 0 1 32-32 32 32 0 0 1 32 32v128a32 32 0 0 1-32 32zM912 101.12h-128a32.64 32.64 0 0 1-32-32 32 32 0 0 1 32-32h128a31.36 31.36 0 0 1 31.36 32 33.28 33.28 0 0 1-31.36 32zM1000.32 821.76A32 32 0 0 1 960 838.4a32.64 32.64 0 0 1-16.64-42.24 28.8 28.8 0 0 0 0-12.8v-103.04a32.64 32.64 0 0 1 32-32 32 32 0 0 1 32 32V783.36a97.92 97.92 0 0 1-7.04 38.4zM976 583.04a32 32 0 0 1-32-32v-128a32.64 32.64 0 0 1 32-32 32 32 0 0 1 32 32v128a32 32 0 0 1-32 32zM683.52-110.08000000000004H112a96 96 0 0 0-96 96V636.1600000000001a96 96 0 0 0 96 96h571.52a96 96 0 0 0 96-96v-650.24a96 96 0 0 0-96-96zM112 668.16a32 32 0 0 1-32-32v-650.24a32 32 0 0 1 32-32h571.52a32 32 0 0 1 32 32V636.1600000000001a32 32 0 0 1-32 32zM604.16 472.32H192a32 32 0 0 0-32 32 32 32 0 0 0 32 32h412.16a32 32 0 0 0 32-32 32.64 32.64 0 0 0-32-32zM604.16 279.03999999999996H192a32 32 0 0 0 0 64h412.16a32 32 0 0 0 0-64zM604.16 85.75999999999999H192a32 32 0 0 0-32 32 32 32 0 0 0 32 32h412.16a32.64 32.64 0 0 0 32-32 32 32 0 0 0-32-32z"  horiz-adv-x="1024" />
      
      <glyph glyph-name="tool" unicode="&#58901;" d="M248.768295 461.087703c15.133675 0 29.9358 2.030239 44.261063 5.529947 0.769526-1.051959 1.198292-2.275833 2.153036-3.230578l64.396659-64.396659c4.89345-4.89345 11.30344-7.339152 17.714454-7.339152 6.40999 0 12.821003 2.445702 17.714454 7.339152 9.7869 9.785877 9.7869 25.640983 0 35.427884l-52.420907 52.432163c13.237489 7.829316 25.690102 17.200754 36.859489 28.381397 5.088902 5.088902 9.750061 10.496052 14.165628 16.050558l53.962006-53.949726c4.892427-4.89345 11.30344-7.339152 17.71343-7.339152 6.412037 0 12.821003 2.446725 17.71343 7.339152 9.7869 9.7869 9.7869 25.640983 0 35.427884l-63.135946 63.124689c8.967232 21.922289 13.70207 45.581128 13.713326 69.999261 0 49.348941-19.230993 95.738481-54.132898 130.652665-38.143739 38.143739-90.698698 57.545624-144.757918 53.459562-9.762341-0.733711-18.190291-7.094582-21.592784-16.269545-3.388167-9.175987-1.136893-19.500123 5.786797-26.423813l32.847106-32.859385c14.887059-14.900362 23.096021-34.69315 23.096021-55.758931 0-21.042245-8.208962-40.859593-23.109324-55.759955-29.77514-29.751604-81.742722-29.751604-111.518886 0l-32.847106 32.859385c-6.924713 6.948249-17.23657 9.17394-26.412556 5.773494-9.187243-3.400446-15.536858-11.81714-16.282848-21.578458-4.097318-53.925167 15.378246-106.675578 53.460586-144.770198C153.017534 480.318696 199.41833 461.087703 248.768295 461.087703zM195.957509 569.719842c34.449603 0 66.831105 13.431917 91.186815 37.777395 24.369014 24.369014 37.777395 56.739259 37.789675 91.187839 0 25.176402-7.16826 49.251727-20.515243 69.877487 14.569834-6.581905 27.965935-15.830547 39.599903-27.452235 25.433252-25.445532 39.452547-59.258639 39.452547-95.224782 0-35.967166-14.020318-69.77925-39.452547-95.224782-25.445532-25.445532-59.270918-39.464827-95.249341-39.464827-35.966143 0-69.791529 14.019295-95.224782 39.441291-11.54801 11.54801-20.747533 24.955368-27.329439 39.538505C146.815275 576.865589 170.841481 569.719842 195.957509 569.719842zM902.606721 255.762337c-34.900881 34.889625-81.303724 54.120618-130.651642 54.120618-25.032116 0-49.27731-4.991688-71.66418-14.410198L580.586586 415.139208l201.484897 207.429283c22.790052 14.288424 45.300742 36.236296 50.755987 49.789986 5.65172 14.044878 7.878434 27.916816 4.929266 30.828123-2.933819 2.935865-7.742335 7.756661-10.69048 10.692526s-16.832364 0.733711-30.851659-4.919033c-13.726629-5.553483-36.150338-28.699646-50.426483-51.844785L403.263995 304.500365l-84.361363 8.489348c-7.52437 0.685615-14.729469-1.834788-20.026102-7.020904-18.300808-17.909905-176.210257-178.583305-182.76658-185.263447-41.886993-41.86141-43.99091-92.043323-5.614881-134.24754 18.803251-20.674878 43.049468-31.930223 70.134337-32.56672 0.795109 0 1.602498-0.023536 2.397606-0.023536 31.500435 0 59.992349 14.387685 74.855872 29.287023 62.965054 65.399499 162.178683 167.230746 177.48325 179.684382 10.739599 8.734942 12.355399 24.51637 3.631714 35.232432-8.733918 10.741645-24.538883 12.380982-35.243689 3.620457-22.582321-18.349927-165.713182-166.911474-181.640943-183.450149-6.15314-6.166443-22.680559-15.292288-40.321334-14.241352-13.408381 0.319272-24.613584 5.603625-34.228569 16.173354-13.554714 14.901385-25.360598 35.795251 4.134157 65.253166 1.493004 1.517563 136.084375 138.483005 173.983543 176.528506l84.61719-8.512884c7.695263-0.735757 15.145955 1.981121 20.478404 7.484462l32.945343 33.912367 128.267339-128.255059c-3.083222-13.481036-4.844332-27.330462-4.844332-41.49609 0-49.349965 19.232017-95.738481 54.133921-130.652665 34.814923-34.840506 81.20344-54.022381 130.615826-54.022381 4.709255 0 9.41851 0.170892 14.129812 0.537236 9.761318 0.733711 18.190291 7.096628 21.591761 16.269545 3.40147 9.175987 1.150196 19.501146-5.774517 26.423813l-32.847106 32.859385c-30.742165 30.754444-30.742165 80.789001 0.01228 111.544469 29.777187 29.751604 81.743746 29.751604 111.51991 0l32.847106-32.859385c6.91141-6.92369 17.21201-9.149381 26.411533-5.773494 9.187243 3.400446 15.536858 11.81714 16.282848 21.578458C960.164624 164.91730600000005 940.689061 217.66771700000004 902.606721 255.762337zM498.635109 330.77784499999996l47.038316 48.419779 110.321618-110.296035c-5.089925-4.110621-10.019191-8.465812-14.71719-13.162788-11.584849-11.574616-21.263279-24.51637-29.263487-38.314631L498.635109 330.77784499999996zM824.764841 201.22625700000003c-34.449603 0-66.830081-13.407358-91.186815-37.751812-43.674709-43.674709-49.423643-111.152543-17.22429-161.088862-14.59644 6.605442-28.015054 15.8285-39.649022 27.475771-25.433252 25.445532-39.45357 59.258639-39.45357 95.224782 0 35.966143 14.019295 69.77925 39.45357 95.225805 25.444509 25.444509 59.269895 39.463804 95.250364 39.463804 35.96512 0 69.789483-14.019295 95.223758-39.440267 11.54801-11.54801 20.747533-24.956392 27.329439-39.538505C873.907075 194.10711500000002 849.878822 201.22625700000003 824.764841 201.22625700000003z"  horiz-adv-x="1024" />
      
      <glyph glyph-name="table" unicode="&#58948;" d="M794.17 748.97c45.16-0.2 81.71-36.76 81.92-81.92v-564.34c-0.2-45.16-36.76-81.71-81.92-81.92H229.83c-45.16 0.2-81.71 36.76-81.92 81.92V667.05c0.2 45.16 36.76 81.71 81.92 81.92h564.34m0 45.51H229.83c-70.09 0-127.43-57.34-127.43-127.43v-564.34c0-70.08 57.34-127.43 127.43-127.43h564.34c70.08 0 127.43 57.34 127.43 127.43V667.05c0 70.08-57.34 127.43-127.43 127.43z m0 0M360.03 519.4h44.52v-545.88h-44.52zM617.81 522.02h44.52v-545.88h-44.52zM916.986 536.0319999999999v-44.52h-813.89v44.52zM920.897 278.245v-44.52h-813.89v44.52z"  horiz-adv-x="1024" />
      
      <glyph glyph-name="data-screen-copy" unicode="&#60539;" d="M929.12132568 834H112.46881924A50.46728994 50.46728994 0 0 1 62.0015293 783.1503823200001v-618.98895527a50.84961768 50.84961768 0 0 1 50.46728994-50.46728906h816.65250644A50.84961768 50.84961768 0 0 1 979.58861474 164.16142705000004V783.1503823200001A50.84961768 50.84961768 0 0 1 929.12132568 834z m-14.52846269-655.69243799H126.99728106V768.2395919h787.59558193zM357.15870898 10.847918550000031m19.11639727 1e-8l279.09940518 0q19.11639727 0 19.11639726-19.11639815l0-38.61512314q0-19.11639727-19.11639726-19.11639727l-279.09940518 0q-19.11639727 0-19.11639727 19.11639727l0 38.61512314q0 19.11639727 19.11639727 19.11639815ZM455.41699209 491.05182627l111.6397626-123.49192851 10.3228541-14.14613409 204.92778252 148.72557393-42.43840225 58.49617675-151.0195412-109.34579443-128.07986398 141.4613417-50.0849622-45.11469814-171.6652503-138.78504668 45.49702589-56.2022086 170.90059482 138.40271807z"  horiz-adv-x="1044" />
      
      <glyph glyph-name="date" unicode="&#58935;" d="M814.530133-2.8575670000000173l-621.810413 0.631572c-71.467345 6.758418-127.564711 67.101305-127.564711 135.196936L65.155009 561.27755c0 82.827243 63.217938 146.045181 140.942641 146.045181l608.428485 0c77.706115 0 140.903068-63.217938 140.903068-142.975263l0-428.28962C955.4332 60.385355000000004 892.215262-2.8575670000000173 814.530133-2.8575670000000173L814.530133-2.8575670000000173zM206.077264 649.881676c-46.051577 0-83.522572-37.452407-83.522572-88.620715l0-428.290019c0-40.935046 37.470995-78.412636 83.522572-78.412636l608.452869 0c46.031591 0 83.487196 37.47759 83.487196 81.482555L898.017328 564.3474679999999c0 48.098789-37.455405 85.559191-83.487196 85.559191L206.077264 649.906659 206.077264 649.881676zM666.001235 567.396401c-21.131673 0-33.165514 17.146375-33.165514 38.282445L632.835721 736.629061c0 21.127675 12.033841 38.277448 33.165514 38.277448 21.127476 0 33.160517-17.149772 33.160517-38.277448l0-130.942421C699.161752 584.542576 687.149697 567.396401 666.001235 567.396401L666.001235 567.396401zM349.75545 567.396401c-21.131673 0-33.162916 17.146375-33.162916 38.282445L316.592534 736.629061c0 21.127675 12.031243 38.277448 33.162916 38.277448 21.128075 0 33.162916-17.149772 33.162916-38.277448l0-130.942421C382.918365 584.542576 370.910107 567.396401 349.75545 567.396401L349.75545 567.396401zM530.688377 154.30447800000002l-36.539626 0c-21.128075 0-38.280046 14.080453-38.280046 35.212126 0 21.127675 17.151771 35.20713 38.280046 35.20713l36.539626 0c21.127675 0 38.278047-14.079454 38.278047-35.20713C568.966225 168.38493100000005 551.815853 154.30447800000002 530.688377 154.30447800000002L530.688377 154.30447800000002zM917.935824 438.743428L125.098767 438.743428c-21.131673 0-38.280046 12.033241-38.280046 33.161916 0 21.131673 17.148373 33.160917 38.280046 33.160917l792.858042 0c21.127476 0 38.278047-12.029244 38.278047-33.160917C956.234657 450.776669 939.089281 438.743428 917.935824 438.743428L917.935824 438.743428zM333.260633 274.60051699999997l-36.538227 0c-21.128075 0-38.279447 14.080453-38.279447 35.20693 0 21.132672 17.151371 33.162516 38.279447 33.162516l36.538227 0c21.127675 0 38.279447-12.029844 38.279447-33.162516C371.54008 288.675974 354.388309 274.60051699999997 333.260633 274.60051699999997L333.260633 274.60051699999997zM530.688377 274.60051699999997l-36.539626 0c-21.128075 0-38.280046 14.080453-38.280046 35.20693 0 21.132672 17.151771 33.162516 38.280046 33.162516l36.539626 0c21.127675 0 38.278047-12.029844 38.278047-33.162516C568.966225 288.675974 551.815853 274.60051699999997 530.688377 274.60051699999997L530.688377 274.60051699999997zM730.302439 274.60051699999997l-36.537228 0c-21.131673 0-38.277048 14.080453-38.277048 35.20693 0 21.132672 17.145375 33.162516 38.277048 33.162516l36.537228 0c21.131473 0 38.277048-12.029844 38.277048-33.162516C768.579487 288.675974 751.454098 274.60051699999997 730.302439 274.60051699999997L730.302439 274.60051699999997zM333.260633 154.30447800000002l-36.538227 0c-21.128075 0-38.279447 14.080453-38.279447 35.212126 0 21.127675 17.151371 35.20713 38.279447 35.20713l36.538227 0c21.127675 0 38.279447-14.079454 38.279447-35.20713C371.54008 168.38493100000005 354.388309 154.30447800000002 333.260633 154.30447800000002L333.260633 154.30447800000002zM730.302439 154.30447800000002l-36.537228 0c-21.131673 0-38.277048 14.080453-38.277048 35.212126 0 21.127675 17.145375 35.20713 38.277048 35.20713l36.537228 0c21.131473 0 38.277048-14.079454 38.277048-35.20713C768.579487 168.38493100000005 751.454098 154.30447800000002 730.302439 154.30447800000002L730.302439 154.30447800000002z"  horiz-adv-x="1024" />
      
      <glyph glyph-name="date-range" unicode="&#58918;" d="M864.0003125 683.2003125H769.5996875v68.799375c0 9.6-6.399375 16.0003125-15.999375 16.0003125s-16.0003125-6.4003125-16.0003125-16.0003125v-68.799375H316.8003125v68.799375c0 9.6-6.4003125 16.0003125-16.0003125 16.0003125s-16.0003125-6.4003125-16.0003125-16.0003125v-68.799375H190.4c-43.2 0-79.9996875-35.2003125-79.9996875-80.000625v-523.2c0-43.2 35.199375-79.9996875 79.9996875-79.9996875h673.6003125c43.2 0 79.9996875 35.2003125 79.9996875 79.9996875v523.2c0 44.8003125-35.2003125 80.000625-79.9996875 80.000625zM190.4 651.1996875h94.3996875v-62.4c0-9.6 6.4003125-15.999375 16.0003125-15.999375s16.0003125 6.399375 16.0003125 15.999375v62.4h422.4v-62.4c0-9.6 6.399375-15.999375 15.999375-15.999375s16.0003125 6.399375 16.0003125 15.999375v62.4h92.8003125c25.599375 0 48-20.799375 48-48v-83.199375H142.4v83.199375c0 27.200625 20.8003125 48 48 48z m673.6003125-619.2H190.4c-25.6003125 0-48 20.8003125-48 48v408h769.6003125v-408c0-25.599375-20.8003125-48-48-48zM836.7996875 401.5996875H339.2c-9.6 0-16.0003125-6.399375-16.0003125-15.999375V278.4H214.4c-9.6 0-16.0003125-6.4003125-16.0003125-16.0003125v-124.8c0-9.6 6.4003125-15.999375 16.0003125-15.999375H464c9.6 0 16.0003125 6.399375 16.0003125 15.999375V244.79999999999995h356.799375c9.6 0 16.0003125 6.4003125 16.0003125 16.0003125v124.8c0 9.6-6.4003125 15.999375-16.0003125 15.999375zM449.6 369.6v-91.2h-92.8003125v91.2h92.8003125z m-216-123.1996875h92.8003125v-92.8003125H233.6v92.8003125z m123.1996875-91.2v91.2h92.8003125v-91.2h-92.8003125z m124.8 214.3996875h91.2v-92.8003125h-91.2V369.6z m123.200625 0h92.799375v-92.8003125h-92.799375V369.6z m216-91.2H728v92.8003125h92.8003125v-92.8003125z"  horiz-adv-x="1024" />
      
      <glyph glyph-name="time-range" unicode="&#58891;" d="M499.43375 411.853125H355.83125v-53.72625h197.323125V606.9403125h-53.7196875V411.853125z m0 0M573.5796875 259.3265625h356.1375v-53.720625h-356.1375v53.720625z m0 0M573.5796875 138.59531249999998h356.1375v-53.7253125h-356.1375v53.7253125z m0 0M573.5796875 17.859375h356.1375v-53.7253125h-356.1375V17.859375z m0 0M128.1153125 505.603125a26.87625 26.87625 0 0 1 21.9065625-2.4l178.884375 58.018125c14.1121875 4.5778125 21.841875 19.725 17.2640625 33.834375-4.576875 14.11125-19.725 21.8409375-33.8371875 17.2640625l-115.636875-37.5c14.994375 24.4846875 32.971875 47.379375 53.784375 68.1984375 69.1575 69.1565625 161.1065625 107.23875 258.9084375 107.23875 97.8 0 189.7453125-38.083125 258.9009375-107.23875S875.534375 481.9125 875.534375 384.110625c0-24.77625-2.4525-49.171875-7.228125-72.91875h54.6590625c4.1859375 23.9053125 6.2896875 48.253125 6.2896875 72.91875 0 56.671875-11.105625 111.658125-33.0046875 163.44-21.15 50.0015625-51.421875 94.9003125-89.9709375 133.453125-38.551875 38.551875-83.4534375 68.82-133.45125 89.97-51.7809375 21.9009375-106.771875 33.0065625-163.438125 33.0065625-56.671875 0-111.6628125-11.105625-163.4409375-33.0075-50.0015625-21.15-94.903125-51.418125-133.453125-89.9709375-22.48125-22.48125-42.1246875-47.135625-58.8065625-73.6875l-19.441875 99.050625c-2.8528125 14.5575-16.9734375 24.039375-31.53 21.1875-14.5575-2.8575-24.0403125-16.9734375-21.1875-31.5346875l33.8465625-172.43625a26.874375 26.874375 0 0 1 12.73875-17.979375z m0 0M150.14375 312.80437500000005H95.5325c5.4-31.5740625 14.4075-62.385 26.990625-92.135625 21.15-50.000625 51.421875-94.8984375 89.97375-133.45125 38.5528125-38.5528125 83.450625-68.8209375 133.4521875-89.9709375 50.73-21.4575 104.548125-32.5415625 160.00125-32.983125v53.74125c-96.515625 0.8821875-187.1203125 38.855625-255.46875 107.2021875-52.0321875 52.033125-86.4721875 116.971875-100.3378125 187.5975z m0 0"  horiz-adv-x="1024" />
      
      <glyph glyph-name="rich-text" unicode="&#58967;" d="M314.424889 384c22.641778 0 48.810667-12.856889 69.575111-32.256 23.324444-21.731556 38.001778-49.777778 38.001778-79.758222 0-26.737778-11.662222-51.825778-30.663111-72.362667 3.072-2.275556 5.973333-4.664889 8.874666-7.111111 24.917333-21.731556 40.789333-49.948444 40.789334-80.497778s-15.872-58.766222-40.732445-80.497778c-21.617778-18.830222-48.526222-31.288889-71.509333-31.516444H126.008889V384h188.416z m547.555555-311.978667a36.010667 36.010667 0 0 0 0-72.021333h-263.964444a36.010667 36.010667 0 1 0 0 72.021333h263.964444zM190.008889 160.02844400000004v-96.028444H328.248889a18.830222 18.830222 0 0 1 3.413333 0.568889 47.616 47.616 0 0 1 7.68 2.844444 80.213333 80.213333 0 0 1 18.773334 12.344889c12.117333 10.581333 18.830222 22.471111 18.830222 32.256 0 9.671111-6.712889 21.617778-18.830222 32.199111a80.384 80.384 0 0 1-18.830223 12.344889 47.786667 47.786667 0 0 1-7.736889 2.844445 17.806222 17.806222 0 0 1-3.527111 0.568889l-138.069333 0.056888z m124.416 159.971556H190.008889v-95.971556h124.586667a39.367111 39.367111 0 0 1 8.760888 3.072c5.688889 2.787556 11.605333 6.940444 16.952889 11.946667 11.377778 10.524444 17.692444 22.641778 17.692445 32.995556 0 10.24-6.371556 22.357333-17.635556 32.938666-5.404444 5.006222-11.377778 9.102222-17.066666 11.946667a39.367111 39.367111 0 0 1-8.874667 3.072z m547.555555-17.976889a36.010667 36.010667 0 0 0 0-72.021333h-263.964444a36.010667 36.010667 0 0 0 0 72.021333h263.964444zM303.616 782.336l0.341333-0.739556 136.988445-292.010666a31.971556 31.971556 0 0 0-57.685334-27.648l-0.227555 0.455111-32.711111 69.688889H198.087111l-33.166222-69.859556a32.028444 32.028444 0 0 0-42.211556-15.36L122.311111 447.146667a32.028444 32.028444 0 0 0-15.36 42.211555l0.227556 0.455111 138.979555 292.010667a32.028444 32.028444 0 0 0 57.514667 0.568889z m558.364444-244.337778a36.010667 36.010667 0 0 0 0-72.021333h-263.964444a36.010667 36.010667 0 1 0 0 72.021333h263.964444zM274.773333 693.134222l-46.193777-97.052444H320.284444l-45.511111 97.052444zM861.980444 768a36.010667 36.010667 0 0 0 0-72.021333h-263.964444a36.010667 36.010667 0 1 0 0 72.021333h263.964444z"  horiz-adv-x="1024" />
      
      <glyph glyph-name="row" unicode="&#58989;" d="M828.40625 805.875H195.59375a105.46875 105.46875 0 0 1-105.46875-105.46875v-632.8125a105.46875 105.46875 0 0 1 105.46875-105.46875h632.8125a105.46875 105.46875 0 0 1 105.46875 105.46875V700.40625a105.46875 105.46875 0 0 1-105.46875 105.46875zM195.59375 14.859375a52.734375 52.734375 0 0 0-52.734375 52.734375V489.46875h210.9375v-474.609375z m685.546875 52.734375a52.734375 52.734375 0 0 0-52.734375-52.734375H406.53125V489.46875h474.609375z m0 474.609375H142.859375V700.40625a52.734375 52.734375 0 0 0 52.734375 52.734375h632.8125a52.734375 52.734375 0 0 0 52.734375-52.734375z"  horiz-adv-x="1024" />
      
      <glyph glyph-name="textarea" unicode="&#59111;" d="M92.5696 100.01066666999998h830.12266667v567.97866666h-830.12266667v-567.97866666z m-43.69066667 611.66933333h917.504v-655.36h-917.504v655.36z m830.12266667-436.90666667l-131.072-131.072h131.072v131.072zM173.39733333 547.8399999999999v-218.45333333c0-13.1072 8.73813333-21.84533333 21.84533334-21.84533334s21.84533333 8.73813333 21.84533333 21.84533334v218.45333333c0 13.1072-8.73813333 21.84533333-21.84533333 21.84533333s-21.84533333-8.73813333-21.84533334-21.84533333z"  horiz-adv-x="1024" />
      
      <glyph glyph-name="switch" unicode="&#58998;" d="M694.04444445 384m-145.63555556 0a145.63555555 145.63555555 0 1 1 291.27111111 0 145.63555555 145.63555555 0 1 1-291.27111111 0ZM936.19768889 589.74435555C881.03822222 644.89244445 807.97013333 675.27111111 730.45333333 675.27111111H293.54666667c-77.5168 0-150.58488889-30.37866667-205.74435556-85.52675556S2.27555555 461.5168 2.27555555 384s30.37866667-150.58488889 85.52675556-205.74435555S216.02986667 92.72888889000001 293.54666667 92.72888889000001h436.90666666c77.5168 0 150.58488889 30.37866667 205.74435556 85.52675556S1021.72444445 306.4832 1021.72444445 384s-30.37866667 150.58488889-85.52675556 205.74435555z m-51.48444444-359.99288888A216.87182222 216.87182222 0 0 0 730.45333333 165.54666667000004H293.54666667a218.45333333 218.45333333 0 0 0 0 436.90666666h436.90666666a218.14613333 218.14613333 0 0 0 154.24853334-372.70186666z"  horiz-adv-x="1024" />
      
      <glyph glyph-name="time" unicode="&#59216;" d="M942.4 419.2c-16 209.6-185.6 379.2-395.2 395.2-265.6 20.8-486.4-200-465.6-465.6 16-209.6 185.6-379.2 395.2-395.2 265.6-20.8 486.4 200 465.6 465.6z m-64-73.6c-17.6-172.8-156.8-312-328-328-233.6-22.4-427.2 171.2-404.8 404.8 17.6 172.8 156.8 312 328 328 233.6 22.4 427.2-171.2 404.8-404.8zM544 412.8V654.4c0 14.4-8 27.2-20.8 32-22.4 6.4-43.2-9.6-43.2-30.4v-262.4c0-1.6 0-1.6 1.6-3.2 0-1.6 0-1.6 1.6-3.2 0-1.6 1.6-1.6 1.6-3.2s0-1.6 1.6-3.2 3.2-3.2 3.2-4.8L624 241.60000000000002c9.6-9.6 25.6-14.4 38.4-6.4 20.8 11.2 24 36.8 8 51.2L544 412.8z"  horiz-adv-x="1024" />
      
      <glyph glyph-name="text" unicode="&#59190;" d="M836 816H188a108 108 0 0 1-108-108v-648a108 108 0 0 1 108-108h648a108 108 0 0 1 108 108V708a108 108 0 0 1-108 108z m63-756a63 63 0 0 0-63-63H188A63 63 0 0 0 125 60V708A63 63 0 0 0 188 771h648A63 63 0 0 0 899 708zM695.42 605.04H328.58a22.5 22.5 0 0 1 0-45h160.92V186a22.5 22.5 0 0 1 45 0V560.04h160.92a22.5 22.5 0 0 1 0 45z"  horiz-adv-x="1024" />
      
      <glyph glyph-name="checkbox" unicode="&#58927;" d="M713.33156115 91.21874092999997H182.2239314A91.51473339 91.51473339 0 0 0 90.77429199 182.66838115999997V713.77601093A91.51473339 91.51473339 0 0 0 182.2239314 805.22565033H655.89064731a32.45223752 32.45223752 0 0 0 0-64.90365189H182.2239314a26.61025836 26.61025836 0 0 1-26.54598753-26.54598751v-531.04335975a26.61025836 26.61025836 0 0 1 26.54598753-26.54516436h531.04335974a26.61025836 26.61025836 0 0 1 26.54516436 26.54598833V338.69702646999997a32.45223752 32.45223752 0 0 0 64.90447587 0v-155.96355131a91.51473339 91.51473339 0 0 0-91.38537022-91.51473423zM901.42270481-37.875H332.15104553a32.45223752 32.45223752 0 0 0 0 64.90447586h536.81942093v316.40622776a32.45223752 32.45223752 0 0 0 64.90447586 0v-348.8584661A32.45223752 32.45223752 0 0 0 901.42270481-37.875z m0 843.74994232a32.58160153 32.58160153 0 0 1-22.97570637-9.47570718L465.39926645 383.35067918000004a32.45223752 32.45223752 0 0 1 45.95141272-45.95141273L924.39923514 750.44617447A32.45223752 32.45223752 0 0 1 901.42270481 805.87494233zM306.64408917 576.37495798a32.45223752 32.45223752 0 0 1-22.97570636-55.36284989l183.54857163-183.54857162a32.51650754 32.51650754 0 0 1 45.95141272-0.06427002 32.45223752 32.45223752 0 0 1 0 45.8871427L329.55552552 566.89925078a32.06249753 32.06249753 0 0 1-22.91143634 9.4757072z"  horiz-adv-x="1024" />
      
      <glyph glyph-name="grid" unicode="&#59466;" d="M872 784.00000031H152a40.00000031 40.00000031 0 0 1-40.00000031-40.00000031v-720a40.00000031 40.00000031 0 0 1 40.00000031-40.00000031h720a40.00000031 40.00000031 0 0 1 40.00000031 40.00000031V744a40.00000031 40.00000031 0 0 1-40.00000031 40.00000031z m-280.00000031-720H192.00000031v279.99999938h399.99999938z m0 360H192.00000031V703.99999969h399.99999938z m240-360h-159.99999938V703.99999969h159.99999938z"  horiz-adv-x="1024" />
      
      <glyph glyph-name="rate" unicode="&#58922;" d="M545.5 113.10000000000002l178.2-91.2c8.3-4.1 16.6-4.1 24.9 0 8.3 4.1 12.4 16.6 8.3 24.9l-31.1 197.7c-4.1 24.9 4.1 49.8 20.8 66.3l128.8 151.8c8.3 8.3 8.3 16.6 4.1 24.9-4.2 8.3-12.4 16.6-20.8 16.6l-183.8 30c-24.9 4.1-45.5 16.6-53.9 41.4L519 738.7c-4.1 8.3-12.4 12.4-20.8 12.4-8.3 0-16.6-4.1-20.8-12.4l-83-182.3c-12.4-20.8-33.1-37.3-58-41.4l-184.7-29c-8.3 0-16.6-8.3-20.8-16.6-4.1-8.3 0-16.6 4.1-24.9l140.9-140.8c16.6-16.6 24.9-41.4 20.8-66.3l-33.1-194.7c0-8.3 4.1-16.6 8.3-24.9 4.1-8.3 16.6-4.1 24.9 0L475.2 109c24.7 16.5 49.5 16.5 70.3 4.1zM318.1-40.799999999999955c-26-12.9-56.1-12.9-82.1 4.3-21.5 17.2-34.6 47.5-30.3 73.5l34.6 202.9c0 8.6 0 17.2-8.6 21.5L84.9 412.7c-17.2 21.5-26 51.8-17.2 77.8 8.7 26 34.6 47.5 60.4 51.8l197.3 30.3c8.6 0 17.2 4.3 17.2 12.9l90.7 185.7c12.9 26 38.9 43.2 69.1 43.2 30.2 0 66.1-17.2 79.1-43.2l95.7-170.7c4.3-8.6 12.9-12.9 17.2-12.9l192.3-31.3c30.3-4.3 51.8-26 60.4-51.8 8.6-26 0-56.1-17.2-77.8L795.1 268.9c-4.3-4.3-8.6-12.9-8.6-21.5l32.5-206c4.3-30.3-8.6-56.1-30.3-73.5-21.5-17.2-56.1-17.2-82.1-4.3l-185.7 95c-8.6 4.3-17.2 4.3-21.5 0l-181.3-99.4zM615.5 194.5H408c-18.9 0-37.7 15.6-37.7 31.1s18.9 31.1 37.7 31.1h207.5c18.9 0 37.7-15.6 37.7-31.1s-18.9-31.1-37.7-31.1z"  horiz-adv-x="1024" />
      
      <glyph glyph-name="select" unicode="&#58925;" d="M945.4 742H72.9c-4.8 0-8.7-3.9-8.7-8.7v-429.1c0-5.7 4.6-10.3 10.3-10.3h875c6 0 10.8 4.8 10.8 10.8V727.1c0 7.9 0 14.9-14.9 14.9z m-48.2-378.5c0-2.5-2-4.5-4.5-4.5H134.4c-2.9 0-5.2 2.3-5.2 5.2V670.1c0 2.7 2.2 4.9 4.9 4.9h758.2c2.7 0 4.9-2.2 4.9-4.9v-306.6zM789.6 581.8l-90.3-92.4c-1.8-1.9-4.9-1.9-6.7 0l-90.3 92.4c-11.7 11.6-30.6 11.6-42.2-0.1-11.4-11.5-11.6-30-0.5-41.7l115.1-117.6c11.5-11.8 30.3-12 42.1-0.6l0.6 0.6 115 117.6c11.5 11.8 11.3 30.7-0.5 42.2-11.8 11.6-30.7 11.4-42.3-0.4zM867.9 258.1c-26.2 0-29.4 0-30.7-7.1-0.4-2-0.5-3.9-0.5-5.9v-147.6c0-6.4-2.2-8.5-8.5-8.5H193.1c-2.9 0-5.3 2.4-5.3 5.3V245.5c0 10.6-0.5 12.6-31.2 12.6-32.8 0-32.8 0-32.8-11v-204.3c0-9.9 8-17.9 17.9-17.9h740.2c10.5 0 19 8.5 19 19V248.10000000000002c0 10 0 10-33 10zM789.6 581.8l-90.3-92.4c-1.8-1.9-4.9-1.9-6.7 0l-90.3 92.4c-11.7 11.6-30.6 11.6-42.2-0.1-11.4-11.5-11.6-30-0.5-41.7l115.1-117.6c11.5-11.8 30.3-12 42.1-0.6l0.6 0.6 115 117.6c11.5 11.8 11.3 30.7-0.5 42.2-11.8 11.6-30.7 11.4-42.3-0.4z"  horiz-adv-x="1024" />
      
      <glyph glyph-name="radio" unicode="&#58930;" d="M446.421875 586.603125c0-95.653125-77.540625-173.19375-173.19375-173.19375S100.034375 490.95 100.034375 586.603125s77.540625 173.19375 173.19375 173.19375 173.19375-77.540625 173.19375-173.19375zM273.228125 690.525c-57.39375 0-103.921875-46.528125-103.921875-103.921875s46.528125-103.921875 103.921875-103.921875 103.921875 46.528125 103.921875 103.921875-46.528125 103.921875-103.921875 103.921875zM896.73125 603.928125H515.703125c-19.134375 0-34.640625 15.50625-34.640625 34.640625 0 19.134375 15.50625 34.640625 34.640625 34.640625h381.028125c19.134375 0 34.640625-15.50625 34.640625-34.640625 0-19.134375-15.50625-34.640625-34.640625-34.640625zM725.525 500.00625H513.725c-18.0375 0-32.6625 14.625-32.6625 32.6625v3.965625c0 18.0375 14.625 32.6625 32.6625 32.6625h211.8c18.0375 0 32.6625-14.625 32.6625-32.6625v-3.965625c-0.009375-18.0375-14.634375-32.6625-32.6625-32.6625zM437.76875 192.59062500000005c0-95.653125-77.540625-173.19375-173.19375-173.19375S91.371875 96.9375 91.371875 192.59062500000005s77.540625 173.19375 173.19375 173.19375 173.203125-77.540625 173.203125-173.19375zM264.575 296.50312499999995c-57.39375 0-103.921875-46.528125-103.921875-103.921875s46.528125-103.921875 103.921875-103.921875 103.921875 46.528125 103.921875 103.921875-46.5375 103.921875-103.921875 103.921875zM264.575 192.59062500000005m-51.95625 0a51.95625 51.95625 0 1 1 103.9125 0 51.95625 51.95625 0 1 1-103.9125 0ZM896.73125 209.90625H515.703125c-19.134375 0-34.640625 15.50625-34.640625 34.640625 0 19.134375 15.50625 34.640625 34.640625 34.640625h381.028125c19.134375 0 34.640625-15.50625 34.640625-34.640625 0-19.134375-15.50625-34.640625-34.640625-34.640625zM725.525 105.984375H513.725c-18.0375 0-32.6625 14.625-32.6625 32.6625v3.965625c0 18.0375 14.625 32.6625 32.6625 32.6625h211.8c18.0375 0 32.6625-14.625 32.6625-32.6625v-3.965625c-0.009375-18.0375-14.634375-32.6625-32.6625-32.6625z"  horiz-adv-x="1024" />
      
      <glyph glyph-name="cascader" unicode="&#58950;" d="M162.47466667 384V646.144c0 14.56355555 11.65084445 29.12711111 29.12711111 29.12711111h349.52533333c17.47626667 0 29.12711111-11.65084445 29.12711111-29.12711111V384c0-14.56355555-11.65084445-29.12711111-29.12711111-29.12711111H512v-58.25422222h58.25422222c32.03982222 0 58.25422222 26.2144 58.25422223 58.25422222V675.27111111c0 32.03982222-26.2144 58.25422222-58.25422223 58.25422222H162.47466667c-32.03982222 0-58.25422222-26.2144-58.25422222-58.25422222v-320.39822222c0-32.03982222 26.2144-58.25422222 58.25422222-58.25422222h174.76266666v58.25422222h-145.63555555c-14.56355555 0-29.12711111 11.65084445-29.12711111 29.12711111z m0 0M861.52533333 471.38133333H686.76266667v-58.25422222h145.63555555c17.47626667 0 29.12711111-11.65084445 29.12711111-29.12711111v-262.144c0-14.56355555-11.65084445-29.12711111-29.12711111-29.12711111H482.87288889c-17.47626667 0-29.12711111 11.65084445-29.12711111 29.12711111V384c0 14.56355555 11.65084445 29.12711111 29.12711111 29.12711111H512v58.25422222h-58.25422222c-32.03982222 0-58.25422222-26.2144-58.25422223-58.25422222V92.72888889000001c0-32.03982222 26.2144-58.25422222 58.25422223-58.25422222h407.77955555c32.03982222 0 58.25422222 26.2144 58.25422222 58.25422222V413.12711111c0 32.03982222-26.2144 58.25422222-58.25422222 58.25422222z m0 0"  horiz-adv-x="1024" />
      
      <glyph glyph-name="number" unicode="&#59133;" d="M806.0717952 299.97948693a84.02051307 84.02051307 0 0 0 84.020512-84.02051306v-126.03076907a84.02051307 84.02051307 0 0 0-84.020512-84.020512H217.9282048a84.02051307 84.02051307 0 0 0-84.020512 84.020512v126.03076907a84.02051307 84.02051307 0 0 0 84.020512 84.02051306h588.1435904z m0-33.6082048H217.9282048a50.4123072 50.4123072 0 0 1-50.16024533-45.2450464L167.5158976 215.95897387000002v-126.03076907a50.4123072 50.4123072 0 0 1 45.2450464-50.16024533L217.9282048 39.51589760000002h588.1435904a50.4123072 50.4123072 0 0 1 50.16024533 45.2450464L856.4841024 89.9282048v126.03076907a50.4123072 50.4123072 0 0 1-45.2450464 50.1602464L806.0717952 266.37128213000005z m-105.0256416-12.60307733a16.8041024 16.8041024 0 0 0 16.46802027-13.44328213l0.33608213-3.36082027-0.0420096-67.1744 67.25842027-0.0420096a16.8041024 16.8041024 0 0 0 3.36082026-33.27212373l-3.36082026-0.33608214-67.25842027 0.04201067 0.0420096-67.25842027a16.8041024 16.8041024 0 0 0-33.27212267-3.36082133l-0.33608213 3.36082133-0.04201067 67.25842027-67.1744-0.04201067a16.8041024 16.8041024 0 0 0-3.36082026 33.27212374l3.36082026 0.33608213 67.1744 0.0420096 0.04201067 67.1744c0 9.242256 7.5618464 16.8041024 16.8041024 16.8041024zM806.0717952 762.0923072a84.02051307 84.02051307 0 0 0 84.020512-84.020512v-126.03076907a84.02051307 84.02051307 0 0 0-84.020512-84.02051306H217.9282048a84.02051307 84.02051307 0 0 0-84.020512 84.02051306V678.0717952a84.02051307 84.02051307 0 0 0 84.020512 84.020512h588.1435904z m0-33.6082048H217.9282048a50.4123072 50.4123072 0 0 1-50.16024533-45.2450464L167.5158976 678.0717952v-126.03076907a50.4123072 50.4123072 0 0 1 45.2450464-50.1602464L217.9282048 501.62871787h588.1435904a50.4123072 50.4123072 0 0 1 50.16024533 45.2450464L856.4841024 552.04102613V678.0717952a50.4123072 50.4123072 0 0 1-45.2450464 50.16024533L806.0717952 728.4841024z m-378.09230827-96.62358933a16.8041024 16.8041024 0 0 0 3.36082027-33.27212374L427.97948693 598.2523072H259.93846187a16.8041024 16.8041024 0 0 0-3.36082134 33.27212373L259.93846187 631.86051307h168.04102506z"  horiz-adv-x="1024" />
      
      <glyph glyph-name="slider" unicode="&#59772;" d="M962 665.42578125v-56.25H403.015625c-1.93359375 0-3.515625-1.58203125-3.515625-3.515625V580.875c0-15.55664063-12.56835938-28.125-28.125-28.125H202.625c-15.55664063 0-28.125 12.56835938-28.125 28.125v24.87304688c0 1.93359375-1.58203125 3.515625-3.515625 3.51562499H62v56.25h108.984375c1.93359375 0 3.515625 1.58203125 3.515625 3.515625V693.375c0 15.55664063 12.56835938 28.125 28.125 28.125h168.75c15.55664063 0 28.125-12.56835938 28.125-28.125v-24.43359375c0-1.93359375 1.58203125-3.515625 3.515625-3.515625h558.984375zM962 412.125v-56.25H740.515625c-1.93359375 0-3.515625-1.58203125-3.515625-3.515625v-24.609375c0-15.55664063-12.56835938-28.125-28.125-28.125H540.125c-15.55664063 0-28.125 12.56835938-28.125 28.125v24.609375c0 1.93359375-1.58203125 3.515625-3.515625 3.515625H62v56.25h446.484375c1.93359375 0 3.515625 1.58203125 3.515625 3.515625v24.609375c0 15.55664063 12.56835938 28.125 28.125 28.125h168.75c15.55664063 0 28.125-12.56835938 28.125-28.125v-24.609375c0-1.93359375 1.58203125-3.515625 3.515625-3.515625h221.484375zM962 158.73632812000005v-56.24999999H487.390625c-1.93359375 0-3.515625-1.58203125-3.515625-3.515625V74.625c0-15.55664063-12.56835938-28.125-28.125-28.125H287c-15.55664063 0-28.125 12.56835938-28.125 28.125v24.43359375c0 1.93359375-1.58203125 3.515625-3.515625 3.515625H62v56.25h193.359375c1.93359375 0 3.515625 1.58203125 3.515625 3.515625V187.125c0 15.55664063 12.56835938 28.125 28.125 28.125h168.75c15.55664063 0 28.125-12.56835938 28.125-28.125v-24.87304688c0-1.93359375 1.58203125-3.515625 3.515625-3.51562499h474.609375z"  horiz-adv-x="1024" />
      
      <glyph glyph-name="password" unicode="&#58884;" d="M892.81344107 244.41776000000004c12.91494293 0 23.37285973 10.70023573 23.37285973 23.879328l0 209.7477536c0 50.11744427-39.75885653 90.76698667-88.81315413 90.76698667l-80.4542432 0c-0.02401387 0.0229216-0.02401387 0.07204053-0.05021014 0.0949632l-8.3829248 0 0 66.33425493c0 109.89708267-87.07871893 199.02350507-194.52095786 199.02350507l-38.91183254 0c-106.71528213 0-193.24277973-87.94648213-194.42272-196.83171947 0-0.1932-0.118976-0.33728213-0.118976-0.53048213 0-0.12115947 0.06985813-0.21721387 0.06985814-0.33618987 0-0.43442773-0.06985813-0.86885547-0.06985814-1.3251136l0.33728214 0c0.91579093-12.9411392 11.41845973-23.25279147 24.5768128-23.25279147 13.20310613 0 23.68503573 10.31165227 24.57353813 23.25279147l0.24231893 0c3.7111904 83.05426027 67.56222293 149.26735573 145.9676704 149.26735573l36.57705707 0c80.8166304 0 146.3300576-70.21354133 146.3300576-156.83381866l0-58.76888427 36.3827648 0c0-0.0229216 0-0.07204053 0.02510507-0.0949632L345.25457493 568.81073707c0 0.0229216 0.0229216 0.07204053 0.04802667 0.0949632l-52.62358933 0c-0.02401387-0.0229216-0.04802667-0.07204053-0.04802667-0.0949632l-101.84925653 0c-49.05648 0-88.81424533-40.6495424-88.81424534-90.76698667l0-450.96312853c0-50.11635307 39.75776533-90.7418816 88.81424534-90.7418816l636.59141866 0c49.0542976 0 88.81315413 40.62552853 88.81315414 90.7418816l0 26.23920853c-0.05021013 13.1321568-10.50703467 23.78218133-23.37285974 23.78218133s-23.29863573-10.6500256-23.37395093-23.78218133l0-0.07094933c0-0.0229216 0-0.0229216 0-0.04911894 0 0 0-0.04911893 0-0.07094933l0-21.27603627c0-26.3821984-20.91146667-47.75647253-46.74135253-47.75647253L195.4545536-15.903695999999968c-25.83097707 0-46.74244373 21.37427413-46.74244373 47.75647253L148.71210987 473.27268693c0 26.38547307 20.91146667 47.75647253 46.74244373 47.75647254L822.6970464 521.02915947c25.82988587 0 46.74135253-21.37209067 46.74135253-47.75647254l0-204.97559893C869.4394912 255.11799572999996 879.8984992 244.41776000000004 892.81344107 244.41776000000004zM517.48546667 239.64997119999998l-33.7085248 0c-4.675008 0-8.41130453-3.8072448-8.41130454-8.50408427l0-101.87763626c0-4.69793067 3.75921813-8.4811616 8.41130454-8.4811616l33.7085248 0c1.01075413 0 1.92763627 0.24231893 2.79539946 0.5774176 69.201696 5.75998613 123.5848256 64.04641493 123.6055648 135.24451306 0 75.03372267-60.3810688 135.848128-134.83191573 135.848128-70.65015147 0-128.523984-54.79026987-134.2577728-124.51917333-0.29143787-0.89286827-0.53048213-1.81302613-0.53048213-2.822688l0-33.97049173c0-4.70011307 3.75812587-8.48443627 8.40802986-8.48443627l33.709616 0c4.64990293 0 8.43095147 3.7854144 8.43095147 8.48443627l0 8.50408426c-1.10571627 5.49256213 0 11.13029653 0 16.9601408 0 46.91381333 37.71006187 84.9131296 84.2396576 84.9131296 46.55033493 0 84.25821333-37.998224 84.25821333-84.9131296 0-41.0555904-28.9396448-75.3197024-67.4181408-83.19834133l0 57.73411733C525.89458773 235.84272639999995 522.13646187 239.64997119999998 517.48546667 239.64997119999998z"  horiz-adv-x="1024" />
      
      <glyph glyph-name="radio2" unicode="&#59121;" d="M544 768C314.24 768 128 581.76 128 352 128 122.24000000000001 314.24-64 544-64c229.76 0 416 186.24 416 416C960 581.76 773.76 768 544 768zM544 0C349.44 0 192 157.44000000000005 192 352 192 546.56 349.44 704 544 704 738.56 704 896 546.56 896 352 896 157.44000000000005 738.56 0 544 0zM544 512C455.68 512 384 440.32 384 352 384 263.67999999999995 455.68 192 544 192 632.32 192 704 263.67999999999995 704 352 704 440.32 632.32 512 544 512z"  horiz-adv-x="1024" />
      
      <glyph glyph-name="color" unicode="&#58985;" d="M168.910848 318.125056m-28.672 0a28 28 0 1 1 57.344 0 28 28 0 1 1-57.344 0ZM229.326848 462.94528m-44.964864 0a43.911 43.911 0 1 1 89.929728 0 43.911 43.911 0 1 1-89.929728 0ZM408.513536 580.779008m-58.020864 0a56.661 56.661 0 1 1 116.041728 0 56.661 56.661 0 1 1-116.041728 0ZM642.842624 580.779008m-72.868864 0a71.161 71.161 0 1 1 145.737728 0 71.161 71.161 0 1 1-145.737728 0ZM1012.110336 651.752448l-0.77312 0.671744c-10.673152 9.270272-26.843136 8.132608-36.113408-2.541568L589.09696 205.28332799999998l-48.813056-95.97952 87.571456 60.961792 386.797568 445.37344C1023.9232 626.313216 1022.784512 642.4832 1012.110336 651.752448zM945.957888 404.48c-13.732864 0-24.981504-10.60352-26.02496-24.06912l-0.086016 0.006144c0 0-36.182016-191.830016-193.878016-294.228992-170.133504-110.475264-364.883968-60.75904-401.06496 3.069952-19.881984 35.075072-50.176 94.208-67.412992 108.545024-46.288896 38.500352-163.328-14.848-187.904 43.52-45.676544 108.48256 62.123008 389.632 329.387008 459.264 186.98752 49.563648 346.205184-10.143744 426.067968-76.672l0 0.01024c4.4288-3.77856 10.171392-6.065152 16.449536-6.065152 14.00832 0 25.363456 11.355136 25.363456 25.363456 0 8.409088-4.094976 15.858688-10.397696 20.473856C822.82496 691.969024 610.65728 854.230016 314.32192 721.067008c-323.584-145.408-344.064-448.512-276.48-524.288s166.500352-15.837184 188.416-40.96c13.995008-16.043008 32.228352-58.630144 56.148992-97.281024 34.644992-55.977984 207.919104-173.529088 472.23296-16.723968 158.611456 94.096384 215.380992 310.782976 217.428992 334.505984l-0.08704 0.007168c0.052224 0.673792 0.08704 1.353728 0.08704 2.040832C972.069888 392.788992 960.37888 404.48 945.957888 404.48z"  horiz-adv-x="1037" />
      
      <glyph glyph-name="img-upload" unicode="&#59028;" d="M400.696 627.2049999999999c-17.249 0-31.233-13.986-31.233-31.233v-30.471c0-17.249 13.986-31.233 31.233-31.233s31.233 13.986 31.233 31.233v30.471c0 17.249-13.985 31.233-31.233 31.233zM623.649 534.2660000000001c17.249 0 31.234 13.986 31.234 31.233v30.471c0 17.249-13.986 31.233-31.234 31.233s-31.233-13.986-31.233-31.233v-30.471c-0.001-17.248 13.985-31.233 31.233-31.233zM438.295 507.196c-14.656-9.104-19.155-28.362-10.05-43.013 11.209-18.047 41.976-48.59 86.157-48.59 43.958 0 75.1 30.313 86.574 48.223 9.303 14.529 5.068 33.847-9.455 43.15-14.539 9.298-33.852 5.068-43.15-9.455-0.122-0.199-13.38-19.45-33.969-19.45-20.009 0-32.444 18.128-33.278 19.373-9.166 14.423-28.28 18.805-42.829 9.761zM824.508503 779.3093240000001L571.592236 779.3093240000001c-17.248849 0-31.233352-13.985526-31.233352-31.233352s13.985526-31.233352 31.233352-31.233352l252.916267 0c40.181141 0 72.878844-32.692586 72.878844-72.878844l0-396.966057-189.334159 165.29465c-12.20088 10.655687-30.517037 10.207479-42.173518-0.9967L468.578048 221.83768999999995 309.521472 378.480286c-11.895935 11.70253-30.903847 12.002358-43.154869 0.645706L126.957507 249.83637099999999l0 394.126382c0 40.186258 32.692586 72.878844 72.878844 72.878844l252.916267 0c17.248849 0 31.233352 13.985526 31.233352 31.233352S470.000444 779.3093240000001 452.751594 779.3093240000001L199.836351 779.3093240000001c-74.632791 0-135.346571-60.71378-135.346571-135.346571l0-520.56405c0-74.632791 60.71378-135.346571 135.346571-135.346571l252.916267 0c17.248849 0 31.233352 13.985526 31.233352 31.233352s-13.985526 31.233352-31.233352 31.233352L199.836351 50.518835999999965c-40.186258 0-72.878844 32.692586-72.878844 72.878844l0 41.23924 160.003134 148.385539 159.428036-157.007917c12.048407-11.865235 31.361265-11.981892 43.546795-0.274246l198.576661 190.68697 208.876238-182.346001 0-40.683585c0-40.186258-32.697703-72.878844-72.878844-72.878844L571.592236 50.518835999999965c-17.248849 0-31.233352-13.985526-31.233352-31.233352s13.985526-31.233352 31.233352-31.233352l252.916267 0c74.627674 0 135.346571 60.71378 135.346571 135.346571L959.855074 643.962753C959.855074 718.595544 899.136178 779.3093240000001 824.508503 779.3093240000001z"  horiz-adv-x="1024" />
      
      <glyph glyph-name="input" unicode="&#59110;" d="M64.60757333 139.33226666999997h885.46417778v489.33546666h-885.46417778v-489.33546666z m-46.60337778 535.93884444h978.67093334v-582.54222222h-978.67093334v582.54222222z m132.81962667-174.76266666v-233.0168889c0-13.98101333 9.32067555-23.30168889 23.30168889-23.30168888s23.30168889 9.32067555 23.30168889 23.30168888v233.0168889c0 13.98101333-9.32067555 23.30168889-23.30168889 23.30168888s-23.30168889-9.32067555-23.30168889-23.30168888z"  horiz-adv-x="1024" />
      
      <glyph glyph-name="anchor" unicode="&#59026;" d="M867.968 323.2c-17.664 0-33.728-14.336-33.728-32 0-147.392-194.176-268.8-322.176-285.824L512.064 320l158.464 0c18.176 0 32.896 13.952 32.896 32.192 0 18.112-14.656 30.272-32.896 31.808L512 384 512 515.2c64 14.656 130.176 79.232 130.176 156.8 0 88.384-70.72 160-159.104 160S321.344 760.384 321.344 672C321.344 594.432 384 529.856 448 515.2L448 384 297.408 384C279.296 382.464 264.576 370.304 264.576 352.192 264.576 333.952 279.296 320 297.408 320L448 320l0-314.624C320 22.4 129.728 143.808 129.728 291.2c0 17.664-13.248 32-30.912 32s-31.488-14.336-31.488-32c0-204.16 248.768-352 416.256-352 167.552 0 416.128 147.84 416.128 352C899.84 308.864 885.632 323.2 867.968 323.2zM387.968 672c0 52.928 43.072 96 96 96s96-43.072 96-96S536.896 576 483.968 576 387.968 619.072 387.968 672z"  horiz-adv-x="1024" />
      
      <glyph glyph-name="external-links" unicode="&#59153;" d="M864 256a32 32 0 0 0 64 0v-224.096A63.936 63.936 0 0 0 864.096-32H159.904A63.936 63.936 0 0 0 96 31.903999999999996V736.096C96 771.392 124.64 800 159.904 800H384a32 32 0 0 0 0-64H192.064A31.904 31.904 0 0 1 160 703.936v-639.872A31.904 31.904 0 0 1 192.064 32h639.872A31.904 31.904 0 0 1 864 64.06399999999996V256z m-485.184-52.48a31.84 31.84 0 0 0-45.12 0.128 31.808 31.808 0 0 0-0.128 45.12L815.04 729.952l-176.128-0.736a31.392 31.392 0 0 0-31.584 31.744 32.32 32.32 0 0 0 31.84 32l255.232 1.056a31.36 31.36 0 0 0 31.584-31.584L924.928 507.2a32.32 32.32 0 0 0-32-31.84 31.392 31.392 0 0 0-31.712 31.584l0.736 179.392L378.816 203.51999999999998z"  horiz-adv-x="1024" />
      
      <glyph glyph-name="excel" unicode="&#58924;" d="M625.664 763.392v-67.072h309.76v-43.008h-309.76v-69.632h309.76v-43.008h-309.76v-68.608h309.76v-43.008h-309.76v-68.608h309.76v-43.008h-309.76v-68.608h309.76v-43.008h-309.76v-68.096h309.76v-43.008h-309.76v-89.088H1024v757.76H625.664zM0-18.944L577.024-128V896L0 786.944v-805.888zM229.376 235.52h-89.6l118.272 187.904-112.64 180.736h92.16l65.536-119.808 67.584 119.808h89.088l-112.64-177.664L466.944 235.52H373.248l-70.144 125.44z"  horiz-adv-x="1024" />
      
      <glyph glyph-name="ppt" unicode="&#59316;" d="M821.09100415 519.29412381c-4.10624501 76.85855852-68.87356614 141.74739916-145.96103354 145.28984824-0.22608369-48.47092771-0.10738937-97.04924341-0.10738936-145.62614788C723.7082863 518.95782417 772.39399276 518.74021884 821.09100415 519.29412381zM995.99357486 730.57638343c2.55898526 25.50789004-17.41409569 45.36086406-42.92339832 42.92481231-118.45088979 1.77758262-237.1278633-0.11728033-355.68755644 0.55390496 0 33.27245188 0 66.54631634 0 99.82159482l-62.88517433 0c-171.358709-29.16903343-342.49274692-59.33566085-513.63667718-88.94697071 0-258.6496166-0.11021596-517.40662256 0-776.16362854 169.14026257-29.71869922 338.50802281-57.89296388 507.52959106-88.729364l68.99225907 0c0 36.93500788 0 73.97740513 0 110.91099906 111.01838843 0 221.93362663 0.21619271 332.84462705-0.33347308 18.96559463 0.88455283 40.02811481-0.66129433 56.22277064 11.09081684 12.86840083 19.85297266 9.54355708 44.69956834 10.6471278 67.10022133C995.54988583 316.10142069999995 997.87854685 523.40036882 995.99357486 730.57638343zM346.16550489 360.12980237c-25.17159178-12.86698686-54.01562913-11.09223082-81.40849256-10.2048514-0.10738937-43.36850131-0.22325711-86.73700263-0.10738935-130.0927864-21.96261575 1.8835594-44.03827402 3.76853279-65.99523798 5.5447028-0.99618138 118.45088979-1.22226507 237.01905994 0.11021596 355.46994974 60.21879968-2.88115338 133.20285004 23.85041431 183.11082155-21.29284304C429.68364051 501.54090327 417.03567158 394.85342958 346.16550489 360.12980237zM963.3894817 64.22159718c-122.00040327 0-244.00363313 0-366.005449 0 0 29.61130986 0 59.11664156 0 88.7279514 88.73077798 0 177.46155457 0 266.18950735 0 0 14.75337283 0 29.61272245 0 44.36468268-88.72795139 0-177.45872938 0-266.18950735 0 0 18.51907903 0 36.93500788 0 55.45549952 88.73077798 0 177.46155457 0 266.18950735 0 0 14.75054626 0 29.61272245 0 44.36468269-88.72795139 0-177.45872938 0-266.0821166 0-0.10738937 21.73794604-0.10738937 43.47447809-0.2260837 65.21383672 43.93370985-13.63708454 93.94907211-13.31208985 133.21274101 13.09589714 42.47970932 25.17017778 64.66275696 73.1960025 68.32248639 121.11443784-48.69701139 0.3221695-97.37989126 0.21478012-145.96103355 0.21478012-0.11586772 48.24343004 0.55249236 96.49533844-0.99618138 144.62855391-18.19267036-3.55234006-36.38251552-7.32369804-54.45931813-11.20103278 0 36.81631357 0 73.75132146 0 110.57611339 122.00322986 0 244.00645972 0 366.00544898 0C963.3894817 515.29668213 963.3894817 289.70473729 963.3894817 64.22159718zM264.64962158 520.84279616c-0.33347306-37.26000258-0.55531756-74.42250676 1.77758263-111.57370737 22.06435332 2.65365709 50.67806919 0.44227641 63.32886334 23.28661841 10.52843351 22.40913133 11.19962019 51.02567241-1.45117395 72.75231349C313.56141172 525.83359399 286.49636959 521.83756494 264.64962158 520.84279616z"  horiz-adv-x="1024" />
      
      <glyph glyph-name="function" unicode="&#60258;" d="M418.496 250.65599999999995l-159.456 90.752a32 32 0 0 1-31.68-55.616l159.456-90.752a32 32 0 0 1 31.68 55.616zM790.208 516.192a32 32 0 0 1-31.616 55.648L508.8 429.664l-249.76 142.144a32 32 0 0 1-31.68-55.616l253.344-144.16V64a32 32 0 1 1 64 0v309.312c0 0.992-0.48 1.856-0.576 2.848l246.08 140.032zM880.288 663.52L560.192 850.88a95.648 95.648 0 0 1-96.64 0L143.68 663.52A96.64 96.64 0 0 1 96 580.096v-397.664c0-34.784 18.624-66.88 48.736-84l320-181.92a95.52 95.52 0 0 1 94.496 0l320 181.92A96.576 96.576 0 0 1 928 182.43200000000002V580.096a96.64 96.64 0 0 1-47.712 83.424zM864 182.43200000000002c0-11.584-6.208-22.304-16.256-28l-320-181.92a31.776 31.776 0 0 0-31.488 0l-320 181.92A32.192 32.192 0 0 0 160 182.43200000000002V580.096c0 11.456 6.048 22.048 15.904 27.808l319.872 187.36a31.84 31.84 0 0 0 32.192 0l320.128-187.392c9.856-5.728 15.904-16.32 15.904-27.776v-397.664zM778.656 442.048l-149.344-88.128c-20.608-12.16-37.344-38.944-37.344-59.808v-176.416c0-20.864 16.704-27.904 37.344-15.744l149.344 88.128c20.608 12.16 37.344 38.944 37.344 59.808v176.416c0 20.864-16.704 27.904-37.344 15.744z"  horiz-adv-x="1024" />
      
      <glyph glyph-name="notification" unicode="&#58889;" d="M983.796875 838.580625H43.25v-753.8175h290.975625L497.2559375-78.1875 372.92375 153.8521875v0.0553125h-0.0290625l-0.0075 0.0140625-0.0084375-0.0140625H112.3953125V769.4353125h802.25625v-615.5278125H488.165v-69.144375h495.631875zM448.319375 346.20562500000005c4.7671875-8.259375 12.3346875-13.805625 18.830625-13.805625 1.8365625 0 3.519375 0.435 5.0034375 1.2928125l24.8428125 14.3428125c27.421875-33.1490625 65.683125-55.2459375 107.8828125-62.3025v-28.6725c0-7.9321875 10.2103125-14.385 22.7596875-14.385h13.78125c12.5475 0 22.755 6.4528125 22.755 14.385v28.6725c42.2034375 7.0565625 80.4646875 29.1534375 107.8828125 62.3025l24.845625-14.3409375c1.4840625-0.8596875 3.166875-1.2946875 5.0015625-1.2946875 6.495 0 14.0625 5.548125 18.8296875 13.805625l6.8934375 11.93625c3.00375 5.2040625 4.5759375 10.831875 4.4278125 15.8465625-0.15375 5.1684375-2.1084375 9.0946875-5.506875 11.0559375l-24.811875 14.323125c7.4278125 19.9228125 11.191875 40.8796875 11.191875 62.3034375 0 21.4153125-3.765 42.3721875-11.191875 62.304375l24.811875 14.3203125c6.8671875 3.969375 7.351875 16.03875 1.0790625 26.904375l-6.8934375 11.9390625c-4.7671875 8.2546875-12.3365625 13.8009375-18.8334375 13.8009375-1.83375 0-3.515625-0.435-4.9996875-1.291875l-24.84375-14.338125c-27.421875 33.1509375-65.6840625 55.243125-107.8828125 62.2978125v28.674375c0 7.93125-10.2084375 14.385-22.755 14.385h-13.78125c-12.5503125 0-22.7596875-6.4528125-22.7596875-14.385v-28.674375c-42.1959375-7.0546875-80.45625-29.1478125-107.8828125-62.2978125l-24.8428125 14.338125c-1.4840625 0.856875-3.165 1.291875-4.9996875 1.291875-6.4978125 0-14.0671875-5.54625-18.834375-13.8009375l-6.8925-11.9390625c-6.2709375-10.8665625-5.7871875-22.935 1.078125-26.904375l24.815625-14.3203125c-7.42875-19.921875-11.195625-40.87875-11.195625-62.304375 0-21.4265625 3.766875-42.3825 11.195625-62.3034375l-24.815625-14.323125c-6.8690625-3.9646875-7.351875-16.033125-1.078125-26.9025l6.8925-11.93625z m71.724375 115.4690625c0 63.125625 51.358125 114.4809375 114.4846875 114.4809375 63.125625 0 114.481875-51.3553125 114.481875-114.4809375 0-63.1275-51.35625-114.4865625-114.481875-114.4865625-63.1265625-0.0009375-114.4846875 51.358125-114.4846875 114.4865625zM196.8903125 641.045625h189.4621875v-56.33625H196.8903125zM196.8903125 478.955625h189.4621875v-56.334375H196.8903125zM196.8903125 316.869375h241.828125v-56.33625h-241.828125z"  horiz-adv-x="1024" />
      
      <glyph glyph-name="permission" unicode="&#58892;" d="M849.5 834a112.5 112.5 0 0 0 112.5-112.5v-320.98124971a37.50000029 37.50000029 0 1 0-74.99999971 0V534.00000029H136.99999971v-487.50000029a37.50000029 37.50000029 0 0 1 34.68750029-37.40625L174.5 8.999999709999997h294.4125a37.50000029 37.50000029 0 1 0 0-74.99999971H174.5a112.5 112.5 0 0 0-112.5 112.5V721.5a112.5 112.5 0 0 0 112.5 112.5z m-103.06874971-431.25000029c78.95625029 0 120.0375-52.70625 121.85624971-132.82499971A112.5 112.5 0 0 0 962 159v-112.5a112.5 112.5 0 0 0-112.5-112.5H662.00000029a112.5 112.5 0 0 0-112.5 112.5v112.5a112.53750029 112.53750029 0 0 0 74.99999971 106.10624971c0.88125029 84.18750029 41.13749971 137.64375 121.93125029 137.64375zM849.5 196.50000029H662.00000029a37.50000029 37.50000029 0 0 1-37.50000029-37.50000029v-112.5a37.50000029 37.50000029 0 0 1 37.50000029-37.50000029h187.49999971a37.50000029 37.50000029 0 0 1 37.50000029 37.50000029v112.5a37.50000029 37.50000029 0 0 1-37.50000029 37.50000029z m-476.79374971 37.49999942a37.50000029 37.50000029 0 1 0 0-74.99999971H249.49999971a37.50000029 37.50000029 0 1 0 0 74.99999971z m373.725 93.75000029c-32.21250029 0-45.13124971-14.77500029-46.76250058-56.25H793.25c-1.31249971 40.44375-14.90625 56.25-46.8 56.25zM530.74999971 421.50000029a37.50000029 37.50000029 0 1 0 0-75.00000058H249.49999971a37.50000029 37.50000029 0 1 0 0 75.00000058zM849.5 759.00000029H174.5a37.50000029 37.50000029 0 0 1-37.50000029-37.50000029v-112.5h750.00000058V721.5a37.50000029 37.50000029 0 0 1-34.68750029 37.40625L849.5 759.00000029z"  horiz-adv-x="1024" />
      
      <glyph glyph-name="chart" unicode="&#59045;" d="M853.333333 576c0 128-106.666667 234.666667-234.666666 234.666667S384 704 384 576s106.666667-234.666667 234.666667-234.666667S853.333333 448 853.333333 576z m-384 0C469.333333 657.066667 537.6 725.333333 618.666667 725.333333S768 657.066667 768 576 699.733333 426.666667 618.666667 426.666667 469.333333 494.933333 469.333333 576zM256 384c-93.866667 0-170.666667-76.8-170.666667-170.666667s76.8-170.666667 170.666667-170.666666 170.666667 76.8 170.666667 170.666666-76.8 170.666667-170.666667 170.666667z m0-256c-46.933333 0-85.333333 38.4-85.333333 85.333333s38.4 85.333333 85.333333 85.333334 85.333333-38.4 85.333333-85.333334-38.4-85.333333-85.333333-85.333333zM682.666667 213.33333300000004c-72.533333 0-128-55.466667-128-128s55.466667-128 128-128 128 55.466667 128 128-55.466667 128-128 128z m0-170.666666c-25.6 0-42.666667 17.066667-42.666667 42.666666s17.066667 42.666667 42.666667 42.666667 42.666667-17.066667 42.666666-42.666667-17.066667-42.666667-42.666666-42.666666z"  horiz-adv-x="1024" />
      
      <glyph glyph-name="form-generator" unicode="&#59056;" d="M817.06666667 725.44H213.86666667V411.73333333H817.06666667V725.44z m-62.4-94.18666667l-176-124.48c-7.46666667-5.22666667-17.38666667-5.22666667-24.85333334 0.10666667l-117.01333333 84.48c-7.78666667 5.65333333-18.66666667 3.2-23.36-5.22666667l-71.57333333-128.96c-2.77333333-5.01333333-9.17333333-6.93333333-14.29333334-4.26666666l-40.10666666 21.01333333c-5.54666667 2.88-7.36 9.92-4.05333334 15.14666667l118.50666667 186.66666666c4.90666667 7.78666667 15.46666667 9.81333333 22.93333333 4.37333334l137.49333334-100.37333334c7.68-5.54666667 18.02666667-5.44 25.6 0.32l128.42666666 98.56c4.48 3.41333333 10.98666667 2.77333333 14.61333334-1.6l25.6-30.18666666c4.16-4.69333333 3.2-11.94666667-1.92-15.57333334z m-540.8-587.94666666H817.06666667v63.68H213.86666667v-63.68z m357.01333333 310.08H213.86666667v-63.68h357.01333333v63.68z m0-123.2H213.86666667v-63.68h357.01333333v63.68zM69.33333333 861.86666667v-955.73333334h885.33333334V861.86666667H69.33333333z m811.73333334-891.09333334H142.93333333V797.22666667h738.13333334v-826.45333334z"  horiz-adv-x="1024" />
      
      <glyph glyph-name="scan" unicode="&#59289;" d="M962 484.32a30 30 0 0 0-30 30V738a66 66 0 0 1-66 66h-219.84a30 30 0 0 0 0 60h219.84A126.24 126.24 0 0 0 992 738v-223.68a30 30 0 0 0-30-30zM642.32-96h223.68A126.24 126.24 0 0 1 992 30v219.84a30 30 0 0 1-60 0v-219.84a66 66 0 0 0-66-66h-223.68a30 30 0 0 1 0-60zM32 253.67999999999995v-223.68A126.24 126.24 0 0 1 158-96h219.84a30 30 0 0 1 0 60H158a66 66 0 0 0-66 66v223.68a30 30 0 0 1-60 0zM381.68 864H158A126.24 126.24 0 0 1 32 738v-219.84a30 30 0 0 1 60 0V738A66 66 0 0 0 158 804h223.68a30 30 0 0 1 0 60z m376.32-480A30 30 0 0 1 728 414H296a30 30 0 0 1 0-60h432A30 30 0 0 1 758 384z"  horiz-adv-x="1024" />
      
      <glyph glyph-name="share" unicode="&#58881;" d="M805.5009 524.244c84.9265 0 153.9942 69.0934 153.9942 153.9922 0 84.8978-69.0678 153.9922-153.9942 153.9922s-153.9922-69.0944-153.9922-153.9922c0-7.5182 0.7107-14.847 1.7777-22.0928L329.4966 531.626c-28.1078 29.8588-67.8369 48.6154-111.9662 48.6154-84.9265 0-153.9922-69.0954-153.9922-153.9932s69.0657-153.9922 153.9922-153.9922c33.0834 0 63.7071 10.6086 88.8351 28.4355l219.3664-146.2262c-9.0501-19.5779-14.2172-41.26-14.2172-64.1997 0-84.8988 69.0668-153.9922 153.9922-153.9922 84.8988 0 153.9932 69.0934 153.9932 153.9922 0 84.8968-69.0944 153.9922-153.9932 153.9922-41.8345 0-79.7594-16.8141-107.5374-43.9931L346.0116 341.56949999999995c16.0788 24.3343 25.5109 53.3996 25.5109 84.6787 0 20.2332-4.0192 39.51-11.1565 57.2283l310.8823 119.5684C697.6348 556.0975000000001 747.8907 524.244 805.5009 524.244zM217.5304 328.25340000000006c-54.0283 0-97.9958 43.9675-97.9958 97.9948 0 54.0293 43.9675 97.9958 97.9958 97.9958s97.9948-43.9665 97.9948-97.9958C315.5251 372.22090000000003 271.5587 328.25340000000006 217.5304 328.25340000000006zM665.5078 188.2604c54.0293 0 97.9948-43.9654 97.9948-97.9948 0-54.0293-43.9665-97.9948-97.9948-97.9948s-97.9948 43.9665-97.9948 97.9948C567.5121 144.29589999999996 611.4785 188.2604 665.5078 188.2604zM805.5009 776.2309c54.0293 0 97.9958-43.9665 97.9958-97.9948 0-54.0293-43.9675-97.9948-97.9958-97.9948-54.0303 0-97.9948 43.9654-97.9948 97.9948C707.5052 732.2644 751.4706 776.2309 805.5009 776.2309z"  horiz-adv-x="1024" />
      
      <glyph glyph-name="line" unicode="&#58965;" d="M912 48H144V752c0 17.6-14.4 32-32 32s-32-14.4-32-32v-736c0-17.6 14.4-32 32-32h800c17.6 0 32 14.4 32 32s-14.4 32-32 32zM246.4 259.20000000000005l193.6 193.6 158.4-158.4c6.4-6.4 16-9.6 24-9.6s16 3.2 22.4 9.6l276.8 278.4c11.2 12.8 11.2 32 0 43.2s-32 12.8-43.2 0L624 360l-160 160c-8 4.8-16 8-24 8s-16-3.2-22.4-9.6L201.6 304c-12.8-12.8-12.8-32 0-44.8 12.8-12.8 32-12.8 44.8 0z"  horiz-adv-x="1024" />
      
      </font>
</defs>
</svg>
